{"glyphs":{"0":{"ha":660,"x_min":24,"x_max":713,"o":"m 597 833 l 713 694 l 614 139 l 451 0 l 308 0 l 344 208 l 418 208 l 492 625 l 418 625 l 454 833 l 597 833 m 139 0 l 24 139 l 122 694 l 285 833 l 426 833 l 390 625 l 318 625 l 244 208 l 317 208 l 281 0 l 139 0 z "},"1":{"ha":417,"x_min":0,"x_max":424,"o":"m 424 833 l 314 208 l 383 208 l 347 0 l 0 0 l 36 208 l 106 208 l 179 625 l 110 625 l 146 833 l 424 833 z "},"2":{"ha":639,"x_min":0,"x_max":692,"o":"m 271 0 l 0 0 l 76 438 l 457 549 l 471 625 l 408 625 l 444 833 l 576 833 l 692 694 l 639 396 l 258 285 l 244 208 l 307 208 l 271 0 m 335 208 l 397 208 l 410 278 l 618 278 l 569 0 l 299 0 l 335 208 m 417 833 l 381 625 l 318 625 l 306 556 l 97 556 l 146 833 l 417 833 z "},"3":{"ha":639,"x_min":0,"x_max":715,"o":"m 0 0 l 54 313 l 263 313 l 244 208 l 307 208 l 271 0 l 0 0 m 335 208 l 397 208 l 422 347 l 269 347 l 293 486 l 446 486 l 471 625 l 408 625 l 444 833 l 715 833 l 654 486 l 572 417 l 631 347 l 593 139 l 431 0 l 299 0 l 335 208 m 318 625 l 300 521 l 92 521 l 122 694 l 285 833 l 417 833 l 381 625 l 318 625 z "},"4":{"ha":667,"x_min":46,"x_max":674,"o":"m 364 417 l 338 264 l 46 264 l 72 417 l 354 833 l 438 833 l 396 597 l 274 417 l 364 417 m 465 833 l 674 833 l 600 417 l 669 417 l 643 264 l 574 264 l 564 208 l 633 208 l 597 0 l 250 0 l 286 208 l 356 208 l 465 833 z "},"5":{"ha":639,"x_min":0,"x_max":715,"o":"m 271 0 l 0 0 l 49 278 l 257 278 l 244 208 l 307 208 l 271 0 m 335 208 l 397 208 l 411 285 l 69 396 l 146 833 l 417 833 l 381 625 l 318 625 l 304 549 l 646 438 l 593 139 l 431 0 l 299 0 l 335 208 m 444 833 l 715 833 l 667 556 l 458 556 l 471 625 l 408 625 l 444 833 z "},"6":{"ha":639,"x_min":0,"x_max":715,"o":"m 715 833 l 667 556 l 458 556 l 471 625 l 408 625 l 444 833 l 715 833 m 335 208 l 397 208 l 419 333 l 267 333 l 244 208 l 307 208 l 271 0 l 0 0 l 122 694 l 285 833 l 417 833 l 381 625 l 318 625 l 296 500 l 657 500 l 593 139 l 431 0 l 299 0 l 335 208 z "},"7":{"ha":625,"x_min":97,"x_max":701,"o":"m 318 625 l 306 556 l 97 556 l 146 833 l 701 833 l 665 625 l 318 625 m 651 597 l 385 0 l 174 0 l 439 597 l 651 597 z "},"8":{"ha":639,"x_min":24,"x_max":692,"o":"m 271 0 l 139 0 l 24 139 l 61 347 l 142 417 l 85 486 l 122 694 l 285 833 l 417 833 l 381 625 l 318 625 l 293 486 l 446 486 l 471 625 l 408 625 l 444 833 l 576 833 l 692 694 l 654 486 l 572 417 l 631 347 l 593 139 l 431 0 l 299 0 l 335 208 l 397 208 l 422 347 l 269 347 l 244 208 l 307 208 l 271 0 z "},"9":{"ha":639,"x_min":0,"x_max":715,"o":"m 0 0 l 49 278 l 257 278 l 244 208 l 307 208 l 271 0 l 0 0 m 381 625 l 318 625 l 296 500 l 449 500 l 471 625 l 408 625 l 444 833 l 715 833 l 593 139 l 431 0 l 299 0 l 335 208 l 397 208 l 419 333 l 58 333 l 122 694 l 285 833 l 417 833 l 381 625 z "}," ":{"ha":347,"x_min":0,"x_max":0,"o":""},"R":{"ha":742,"x_min":0,"x_max":747,"o":"m 390 486 l 501 486 l 526 625 l 415 625 l 451 833 l 632 833 l 747 694 l 704 451 l 622 382 l 639 208 l 708 208 l 672 0 l 444 0 l 417 278 l 354 278 l 390 486 m 278 0 l 0 0 l 36 208 l 106 208 l 179 625 l 110 625 l 146 833 l 424 833 l 278 0 z "},"B":{"ha":694,"x_min":0,"x_max":747,"o":"m 453 208 l 478 347 l 367 347 l 390 486 l 501 486 l 526 625 l 415 625 l 451 833 l 632 833 l 747 694 l 710 486 l 628 417 l 686 347 l 649 139 l 486 0 l 306 0 l 342 208 l 453 208 m 278 0 l 0 0 l 36 208 l 106 208 l 179 625 l 110 625 l 146 833 l 424 833 l 278 0 z "},"D":{"ha":729,"x_min":0,"x_max":782,"o":"m 342 208 l 488 208 l 561 625 l 415 625 l 451 833 l 667 833 l 782 694 l 683 139 l 521 0 l 306 0 l 342 208 m 278 0 l 0 0 l 36 208 l 106 208 l 179 625 l 110 625 l 146 833 l 424 833 l 278 0 z "},"I":{"ha":417,"x_min":0,"x_max":493,"o":"m 493 833 l 457 625 l 388 625 l 314 208 l 383 208 l 347 0 l 0 0 l 36 208 l 106 208 l 179 625 l 110 625 l 146 833 l 493 833 z "},"J":{"ha":694,"x_min":24,"x_max":771,"o":"m 292 0 l 328 208 l 383 208 l 457 625 l 388 625 l 424 833 l 771 833 l 735 625 l 665 625 l 579 139 l 417 0 l 292 0 m 300 208 l 264 0 l 139 0 l 24 139 l 54 313 l 263 313 l 244 208 l 300 208 z "},"L":{"ha":694,"x_min":0,"x_max":679,"o":"m 306 0 l 342 208 l 453 208 l 471 313 l 679 313 l 625 0 l 306 0 m 278 0 l 0 0 l 36 208 l 106 208 l 179 625 l 110 625 l 146 833 l 493 833 l 457 625 l 388 625 l 278 0 z "},"E":{"ha":694,"x_min":0,"x_max":771,"o":"m 390 486 l 501 486 l 478 347 l 367 347 l 390 486 m 278 0 l 0 0 l 36 208 l 106 208 l 179 625 l 110 625 l 146 833 l 424 833 l 278 0 m 342 208 l 453 208 l 471 313 l 679 313 l 625 0 l 306 0 l 342 208 m 451 833 l 771 833 l 717 521 l 508 521 l 526 625 l 415 625 l 451 833 z "},"F":{"ha":694,"x_min":0,"x_max":771,"o":"m 501 486 l 471 313 l 360 313 l 390 486 l 501 486 m 771 833 l 717 521 l 508 521 l 526 625 l 415 625 l 451 833 l 771 833 m 314 208 l 383 208 l 347 0 l 0 0 l 36 208 l 106 208 l 179 625 l 110 625 l 146 833 l 424 833 l 314 208 z "},"G":{"ha":660,"x_min":24,"x_max":736,"o":"m 344 208 l 418 208 l 436 313 l 332 313 l 360 465 l 672 465 l 590 0 l 308 0 l 344 208 m 454 833 l 736 833 l 682 521 l 474 521 l 492 625 l 418 625 l 454 833 m 281 0 l 317 208 l 244 208 l 318 625 l 390 625 l 426 833 l 285 833 l 122 694 l 24 139 l 139 0 l 281 0 z "},"H":{"ha":764,"x_min":0,"x_max":840,"o":"m 397 521 l 508 521 l 563 833 l 840 833 l 804 625 l 735 625 l 661 208 l 731 208 l 694 0 l 417 0 l 471 313 l 360 313 l 397 521 m 278 0 l 0 0 l 36 208 l 106 208 l 179 625 l 110 625 l 146 833 l 424 833 l 278 0 z "},"T":{"ha":764,"x_min":92,"x_max":840,"o":"m 361 833 l 325 625 l 283 625 l 265 521 l 92 521 l 146 833 l 361 833 m 589 625 l 625 833 l 840 833 l 786 521 l 613 521 l 631 625 l 589 625 m 597 833 l 488 208 l 557 208 l 521 0 l 174 0 l 210 208 l 279 208 l 389 833 l 597 833 z "},"U":{"ha":799,"x_min":93,"x_max":875,"o":"m 378 0 l 414 208 l 488 208 l 597 833 l 875 833 l 839 625 l 769 625 l 683 139 l 521 0 l 378 0 m 350 0 l 208 0 l 93 139 l 179 625 l 110 625 l 146 833 l 424 833 l 314 208 l 386 208 l 350 0 z "},"X":{"ha":736,"x_min":0,"x_max":813,"o":"m 467 663 l 590 833 l 813 833 l 776 625 l 679 625 l 547 446 l 467 663 m 606 208 l 703 208 l 667 0 l 444 0 l 207 625 l 110 625 l 146 833 l 368 833 l 606 208 m 346 171 l 222 0 l 0 0 l 36 208 l 133 208 l 265 388 l 346 171 z "},"N":{"ha":764,"x_min":0,"x_max":840,"o":"m 382 833 l 592 208 l 731 208 l 694 0 l 458 0 l 249 625 l 110 625 l 146 833 l 382 833 m 511 540 l 563 833 l 840 833 l 804 625 l 735 625 l 665 236 l 613 236 l 511 540 m 174 597 l 106 208 l 36 208 l 0 0 l 278 0 l 329 293 l 226 597 l 174 597 z "},"S":{"ha":639,"x_min":0,"x_max":715,"o":"m 444 833 l 715 833 l 667 556 l 458 556 l 471 625 l 408 625 l 444 833 m 271 0 l 0 0 l 49 278 l 257 278 l 244 208 l 307 208 l 271 0 m 335 208 l 397 208 l 411 285 l 69 396 l 122 694 l 285 833 l 417 833 l 381 625 l 318 625 l 304 549 l 646 438 l 593 139 l 431 0 l 299 0 l 335 208 z "},"K":{"ha":708,"x_min":0,"x_max":785,"o":"m 278 0 l 0 0 l 36 208 l 106 208 l 179 625 l 110 625 l 146 833 l 424 833 l 278 0 m 417 633 l 340 200 l 417 0 l 639 0 l 675 208 l 578 208 l 497 417 l 651 625 l 749 625 l 785 833 l 563 833 l 417 633 z "},"V":{"ha":764,"x_min":110,"x_max":840,"o":"m 410 0 l 415 300 l 593 833 l 840 833 l 804 625 l 735 625 l 526 0 l 410 0 m 381 0 l 168 0 l 179 625 l 110 625 l 146 833 l 393 833 l 381 0 z "},"P":{"ha":694,"x_min":0,"x_max":747,"o":"m 314 208 l 383 208 l 347 0 l 0 0 l 36 208 l 106 208 l 179 625 l 110 625 l 146 833 l 424 833 l 314 208 m 390 486 l 501 486 l 526 625 l 415 625 l 451 833 l 632 833 l 747 694 l 697 417 l 535 278 l 354 278 l 390 486 z "},"a":{"ha":764,"x_min":0,"x_max":731,"o":"m 247 0 l 0 0 l 36 208 l 106 208 l 314 833 l 431 833 l 426 535 l 247 0 m 401 375 l 453 375 l 460 833 l 672 833 l 661 208 l 731 208 l 694 0 l 447 0 l 450 208 l 346 208 l 401 375 z "},"c":{"ha":660,"x_min":24,"x_max":736,"o":"m 418 625 l 454 833 l 736 833 l 682 521 l 474 521 l 492 625 l 418 625 m 344 208 l 308 0 l 590 0 l 644 313 l 436 313 l 418 208 l 344 208 m 281 0 l 317 208 l 244 208 l 318 625 l 390 625 l 426 833 l 285 833 l 122 694 l 24 139 l 139 0 l 281 0 z "},"d":{"ha":729,"x_min":0,"x_max":782,"o":"m 342 208 l 488 208 l 561 625 l 415 625 l 451 833 l 667 833 l 782 694 l 683 139 l 521 0 l 306 0 l 342 208 m 278 0 l 0 0 l 36 208 l 106 208 l 179 625 l 110 625 l 146 833 l 424 833 l 278 0 z "},"e":{"ha":694,"x_min":0,"x_max":771,"o":"m 390 486 l 501 486 l 478 347 l 367 347 l 390 486 m 278 0 l 0 0 l 36 208 l 106 208 l 179 625 l 110 625 l 146 833 l 424 833 l 278 0 m 342 208 l 453 208 l 471 313 l 679 313 l 625 0 l 306 0 l 342 208 m 451 833 l 771 833 l 717 521 l 508 521 l 526 625 l 415 625 l 451 833 z "},"f":{"ha":694,"x_min":0,"x_max":771,"o":"m 501 486 l 471 313 l 360 313 l 390 486 l 501 486 m 771 833 l 717 521 l 508 521 l 526 625 l 415 625 l 451 833 l 771 833 m 314 208 l 383 208 l 347 0 l 0 0 l 36 208 l 106 208 l 179 625 l 110 625 l 146 833 l 424 833 l 314 208 z "},"g":{"ha":660,"x_min":24,"x_max":736,"o":"m 344 208 l 418 208 l 436 313 l 332 313 l 360 465 l 672 465 l 590 0 l 308 0 l 344 208 m 454 833 l 736 833 l 682 521 l 474 521 l 492 625 l 418 625 l 454 833 m 281 0 l 317 208 l 244 208 l 318 625 l 390 625 l 426 833 l 285 833 l 122 694 l 24 139 l 139 0 l 281 0 z "},"h":{"ha":764,"x_min":0,"x_max":840,"o":"m 397 521 l 508 521 l 563 833 l 840 833 l 804 625 l 735 625 l 661 208 l 731 208 l 694 0 l 417 0 l 471 313 l 360 313 l 397 521 m 278 0 l 0 0 l 36 208 l 106 208 l 179 625 l 110 625 l 146 833 l 424 833 l 278 0 z "},"i":{"ha":417,"x_min":0,"x_max":493,"o":"m 493 833 l 457 625 l 388 625 l 314 208 l 383 208 l 347 0 l 0 0 l 36 208 l 106 208 l 179 625 l 110 625 l 146 833 l 493 833 z "},"j":{"ha":694,"x_min":24,"x_max":771,"o":"m 292 0 l 328 208 l 383 208 l 457 625 l 388 625 l 424 833 l 771 833 l 735 625 l 665 625 l 579 139 l 417 0 l 292 0 m 300 208 l 264 0 l 139 0 l 24 139 l 54 313 l 263 313 l 244 208 l 300 208 z "},"k":{"ha":708,"x_min":0,"x_max":785,"o":"m 278 0 l 0 0 l 36 208 l 106 208 l 179 625 l 110 625 l 146 833 l 424 833 l 278 0 m 417 633 l 340 200 l 417 0 l 639 0 l 675 208 l 578 208 l 497 417 l 651 625 l 749 625 l 785 833 l 563 833 l 417 633 z "},"l":{"ha":694,"x_min":0,"x_max":679,"o":"m 306 0 l 342 208 l 453 208 l 471 313 l 679 313 l 625 0 l 306 0 m 278 0 l 0 0 l 36 208 l 106 208 l 179 625 l 110 625 l 146 833 l 493 833 l 457 625 l 388 625 l 278 0 z "},"m":{"ha":903,"x_min":0,"x_max":979,"o":"m 442 146 l 261 625 l 110 625 l 146 833 l 382 833 l 575 328 l 442 146 m 528 538 l 743 833 l 979 833 l 943 625 l 874 625 l 800 208 l 869 208 l 833 0 l 556 0 l 611 317 l 528 538 m 239 597 l 336 338 l 278 0 l 0 0 l 36 208 l 106 208 l 174 597 l 239 597 z "},"n":{"ha":764,"x_min":0,"x_max":840,"o":"m 382 833 l 592 208 l 731 208 l 694 0 l 458 0 l 249 625 l 110 625 l 146 833 l 382 833 m 511 540 l 563 833 l 840 833 l 804 625 l 735 625 l 665 236 l 613 236 l 511 540 m 174 597 l 106 208 l 36 208 l 0 0 l 278 0 l 329 293 l 226 597 l 174 597 z "},"o":{"ha":660,"x_min":24,"x_max":713,"o":"m 597 833 l 713 694 l 614 139 l 451 0 l 308 0 l 344 208 l 418 208 l 492 625 l 418 625 l 454 833 l 597 833 m 139 0 l 24 139 l 122 694 l 285 833 l 426 833 l 390 625 l 318 625 l 244 208 l 317 208 l 281 0 l 139 0 z "},"p":{"ha":694,"x_min":0,"x_max":747,"o":"m 314 208 l 383 208 l 347 0 l 0 0 l 36 208 l 106 208 l 179 625 l 110 625 l 146 833 l 424 833 l 314 208 m 390 486 l 501 486 l 526 625 l 415 625 l 451 833 l 632 833 l 747 694 l 697 417 l 535 278 l 354 278 l 390 486 z "},"r":{"ha":742,"x_min":0,"x_max":747,"o":"m 390 486 l 501 486 l 526 625 l 415 625 l 451 833 l 632 833 l 747 694 l 704 451 l 622 382 l 639 208 l 708 208 l 672 0 l 444 0 l 417 278 l 354 278 l 390 486 m 278 0 l 0 0 l 36 208 l 106 208 l 179 625 l 110 625 l 146 833 l 424 833 l 278 0 z "},"s":{"ha":639,"x_min":0,"x_max":715,"o":"m 444 833 l 715 833 l 667 556 l 458 556 l 471 625 l 408 625 l 444 833 m 271 0 l 0 0 l 49 278 l 257 278 l 244 208 l 307 208 l 271 0 m 335 208 l 397 208 l 411 285 l 69 396 l 122 694 l 285 833 l 417 833 l 381 625 l 318 625 l 304 549 l 646 438 l 593 139 l 431 0 l 299 0 l 335 208 z "},"t":{"ha":764,"x_min":92,"x_max":840,"o":"m 361 833 l 325 625 l 283 625 l 265 521 l 92 521 l 146 833 l 361 833 m 589 625 l 625 833 l 840 833 l 786 521 l 613 521 l 631 625 l 589 625 m 597 833 l 488 208 l 557 208 l 521 0 l 174 0 l 210 208 l 279 208 l 389 833 l 597 833 z "},"u":{"ha":799,"x_min":93,"x_max":875,"o":"m 378 0 l 414 208 l 488 208 l 597 833 l 875 833 l 839 625 l 769 625 l 683 139 l 521 0 l 378 0 m 350 0 l 208 0 l 93 139 l 179 625 l 110 625 l 146 833 l 424 833 l 314 208 l 386 208 l 350 0 z "},"v":{"ha":764,"x_min":110,"x_max":840,"o":"m 410 0 l 415 300 l 593 833 l 840 833 l 804 625 l 735 625 l 526 0 l 410 0 m 381 0 l 168 0 l 179 625 l 110 625 l 146 833 l 393 833 l 381 0 z "},"x":{"ha":736,"x_min":0,"x_max":813,"o":"m 467 663 l 590 833 l 813 833 l 776 625 l 679 625 l 547 446 l 467 663 m 606 208 l 703 208 l 667 0 l 444 0 l 207 625 l 110 625 l 146 833 l 368 833 l 606 208 m 346 171 l 222 0 l 0 0 l 36 208 l 133 208 l 265 388 l 346 171 z "},"z":{"ha":667,"x_min":0,"x_max":743,"o":"m 101 0 l 315 208 l 425 208 l 438 278 l 646 278 l 597 0 l 101 0 m 642 833 l 428 625 l 318 625 l 306 556 l 97 556 l 146 833 l 642 833 m 64 0 l 0 0 l 36 208 l 679 833 l 743 833 l 707 625 l 64 0 z "},"Y":{"ha":736,"x_min":110,"x_max":813,"o":"m 515 446 l 474 208 l 543 208 l 507 0 l 160 0 l 196 208 l 265 208 l 297 386 l 207 625 l 110 625 l 146 833 l 368 833 l 515 446 m 547 446 l 679 625 l 776 625 l 813 833 l 590 833 l 467 663 l 547 446 z "},"y":{"ha":736,"x_min":110,"x_max":813,"o":"m 515 446 l 474 208 l 543 208 l 507 0 l 160 0 l 196 208 l 265 208 l 297 386 l 207 625 l 110 625 l 146 833 l 368 833 l 515 446 m 547 446 l 679 625 l 776 625 l 813 833 l 590 833 l 467 663 l 547 446 z "},"Q":{"ha":660,"x_min":24,"x_max":713,"o":"m 281 0 l 139 0 l 24 139 l 122 694 l 285 833 l 426 833 l 390 625 l 318 625 l 244 208 l 317 208 l 281 0 m 344 208 l 418 208 l 492 625 l 418 625 l 454 833 l 597 833 l 713 694 l 615 147 l 676 74 l 503 -74 l 443 0 l 308 0 l 344 208 z "},"q":{"ha":660,"x_min":24,"x_max":713,"o":"m 281 0 l 139 0 l 24 139 l 122 694 l 285 833 l 426 833 l 390 625 l 318 625 l 244 208 l 317 208 l 281 0 m 344 208 l 418 208 l 492 625 l 418 625 l 454 833 l 597 833 l 713 694 l 615 147 l 676 74 l 503 -74 l 443 0 l 308 0 l 344 208 z "},"W":{"ha":1097,"x_min":110,"x_max":1174,"o":"m 769 0 l 786 342 l 918 833 l 1174 833 l 1138 625 l 1068 625 l 885 0 l 769 0 m 740 0 l 579 0 l 611 556 l 449 0 l 363 0 l 390 339 l 540 833 l 779 833 l 740 0 m 333 0 l 143 0 l 179 625 l 110 625 l 146 833 l 401 833 l 333 0 z "},"w":{"ha":1097,"x_min":110,"x_max":1174,"o":"m 769 0 l 786 342 l 918 833 l 1174 833 l 1138 625 l 1068 625 l 885 0 l 769 0 m 740 0 l 579 0 l 611 556 l 449 0 l 363 0 l 390 339 l 540 833 l 779 833 l 740 0 m 333 0 l 143 0 l 179 625 l 110 625 l 146 833 l 401 833 l 333 0 z "},"Z":{"ha":667,"x_min":0,"x_max":743,"o":"m 101 0 l 315 208 l 425 208 l 438 278 l 646 278 l 597 0 l 101 0 m 642 833 l 428 625 l 318 625 l 306 556 l 97 556 l 146 833 l 642 833 m 64 0 l 0 0 l 36 208 l 679 833 l 743 833 l 707 625 l 64 0 z "},"M":{"ha":903,"x_min":0,"x_max":979,"o":"m 442 146 l 261 625 l 110 625 l 146 833 l 382 833 l 575 328 l 442 146 m 528 538 l 743 833 l 979 833 l 943 625 l 874 625 l 800 208 l 869 208 l 833 0 l 556 0 l 611 317 l 528 538 m 239 597 l 336 338 l 278 0 l 0 0 l 36 208 l 106 208 l 174 597 l 239 597 z "},"´":{"ha":694,"x_min":319,"x_max":672,"o":"m 319 1026 l 672 1103 l 672 932 l 319 889 l 319 1026 z "},"`":{"ha":694,"x_min":306,"x_max":692,"o":"m 642 903 l 306 946 l 365 1117 l 692 1040 l 642 903 z "},"¨":{"ha":694,"x_min":263,"x_max":710,"o":"m 293 1076 l 467 1076 l 436 903 l 263 903 l 293 1076 m 536 1076 l 710 1076 l 679 903 l 506 903 l 536 1076 z "},"ˆ":{"ha":694,"x_min":288,"x_max":704,"o":"m 508 1117 l 704 1040 l 654 903 l 479 953 l 288 903 l 288 1040 l 508 1117 z "},"˘":{"ha":694,"x_min":276,"x_max":693,"o":"m 276 979 l 325 1117 l 500 1067 l 692 1117 l 693 979 l 471 903 l 276 979 z "},"ˇ":{"ha":694,"x_min":276,"x_max":693,"o":"m 276 979 l 325 1117 l 500 1067 l 692 1117 l 693 979 l 471 903 l 276 979 z "},"ð":{"ha":729,"x_min":0,"x_max":782,"o":"m 342 208 l 488 208 l 561 625 l 415 625 l 451 833 l 667 833 l 782 694 l 683 139 l 521 0 l 306 0 l 342 208 m 336 333 l 278 0 l 0 0 l 36 208 l 106 208 l 128 333 l 58 333 l 88 500 l 157 500 l 179 625 l 110 625 l 146 833 l 424 833 l 365 500 l 435 500 l 406 333 l 336 333 z "},"þ":{"ha":694,"x_min":0,"x_max":722,"o":"m 390 486 l 428 694 l 608 694 l 722 556 l 674 278 l 510 139 l 329 139 l 367 347 l 478 347 l 501 486 l 390 486 m 278 0 l 0 0 l 36 208 l 106 208 l 179 625 l 110 625 l 146 833 l 424 833 l 278 0 z "},"˜":{"ha":764,"x_min":310,"x_max":740,"o":"m 740 979 l 622 903 l 422 951 l 310 903 l 310 1040 l 426 1117 l 626 1068 l 739 1117 l 740 979 z "},"æ":{"ha":1028,"x_min":0,"x_max":1104,"o":"m 486 625 l 556 833 l 757 833 l 611 0 l 403 0 l 439 208 l 346 208 l 401 375 l 468 375 l 513 625 l 486 625 m 247 0 l 0 0 l 36 208 l 106 208 l 314 833 l 526 833 l 247 0 m 724 486 l 835 486 l 811 347 l 700 347 l 724 486 m 675 208 l 786 208 l 804 313 l 1013 313 l 958 0 l 639 0 l 675 208 m 785 833 l 1104 833 l 1050 521 l 842 521 l 860 625 l 749 625 l 785 833 z "},"Æ":{"ha":1028,"x_min":0,"x_max":1104,"o":"m 486 625 l 556 833 l 757 833 l 611 0 l 403 0 l 439 208 l 346 208 l 401 375 l 468 375 l 513 625 l 486 625 m 247 0 l 0 0 l 36 208 l 106 208 l 314 833 l 526 833 l 247 0 m 724 486 l 835 486 l 811 347 l 700 347 l 724 486 m 675 208 l 786 208 l 804 313 l 1013 313 l 958 0 l 639 0 l 675 208 m 785 833 l 1104 833 l 1050 521 l 842 521 l 860 625 l 749 625 l 785 833 z "},"А":{"ha":764,"x_min":0,"x_max":731,"o":"m 247 0 l 0 0 l 36 208 l 106 208 l 314 833 l 431 833 l 426 535 l 247 0 m 401 375 l 453 375 l 460 833 l 672 833 l 661 208 l 731 208 l 694 0 l 447 0 l 450 208 l 346 208 l 401 375 z "},"В":{"ha":694,"x_min":0,"x_max":747,"o":"m 453 208 l 478 347 l 367 347 l 390 486 l 501 486 l 526 625 l 415 625 l 451 833 l 632 833 l 747 694 l 710 486 l 628 417 l 686 347 l 649 139 l 486 0 l 306 0 l 342 208 l 453 208 m 278 0 l 0 0 l 36 208 l 106 208 l 179 625 l 110 625 l 146 833 l 424 833 l 278 0 z "},"Е":{"ha":694,"x_min":0,"x_max":771,"o":"m 390 486 l 501 486 l 478 347 l 367 347 l 390 486 m 278 0 l 0 0 l 36 208 l 106 208 l 179 625 l 110 625 l 146 833 l 424 833 l 278 0 m 342 208 l 453 208 l 471 313 l 679 313 l 625 0 l 306 0 l 342 208 m 451 833 l 771 833 l 717 521 l 508 521 l 526 625 l 415 625 l 451 833 z "},"И":{"ha":764,"x_min":0,"x_max":840,"o":"m 840 833 l 804 625 l 665 625 l 236 0 l 0 0 l 36 208 l 175 208 l 604 833 l 840 833 m 163 236 l 110 236 l 179 625 l 110 625 l 146 833 l 424 833 l 372 540 l 163 236 m 729 597 l 661 208 l 731 208 l 694 0 l 417 0 l 468 293 l 676 597 l 729 597 z "},"К":{"ha":708,"x_min":0,"x_max":785,"o":"m 278 0 l 0 0 l 36 208 l 106 208 l 179 625 l 110 625 l 146 833 l 424 833 l 278 0 m 417 633 l 340 200 l 417 0 l 639 0 l 675 208 l 578 208 l 497 417 l 651 625 l 749 625 l 785 833 l 563 833 l 417 633 z "},"М":{"ha":903,"x_min":0,"x_max":979,"o":"m 442 146 l 261 625 l 110 625 l 146 833 l 382 833 l 575 328 l 442 146 m 528 538 l 743 833 l 979 833 l 943 625 l 874 625 l 800 208 l 869 208 l 833 0 l 556 0 l 611 317 l 528 538 m 239 597 l 336 338 l 278 0 l 0 0 l 36 208 l 106 208 l 174 597 l 239 597 z "},"Н":{"ha":764,"x_min":0,"x_max":840,"o":"m 397 521 l 508 521 l 563 833 l 840 833 l 804 625 l 735 625 l 661 208 l 731 208 l 694 0 l 417 0 l 471 313 l 360 313 l 397 521 m 278 0 l 0 0 l 36 208 l 106 208 l 179 625 l 110 625 l 146 833 l 424 833 l 278 0 z "},"О":{"ha":660,"x_min":24,"x_max":713,"o":"m 597 833 l 713 694 l 614 139 l 451 0 l 308 0 l 344 208 l 418 208 l 492 625 l 418 625 l 454 833 l 597 833 m 139 0 l 24 139 l 122 694 l 285 833 l 426 833 l 390 625 l 318 625 l 244 208 l 317 208 l 281 0 l 139 0 z "},"Р":{"ha":694,"x_min":0,"x_max":747,"o":"m 314 208 l 383 208 l 347 0 l 0 0 l 36 208 l 106 208 l 179 625 l 110 625 l 146 833 l 424 833 l 314 208 m 390 486 l 501 486 l 526 625 l 415 625 l 451 833 l 632 833 l 747 694 l 697 417 l 535 278 l 354 278 l 390 486 z "},"С":{"ha":660,"x_min":24,"x_max":736,"o":"m 418 625 l 454 833 l 736 833 l 682 521 l 474 521 l 492 625 l 418 625 m 344 208 l 308 0 l 590 0 l 644 313 l 436 313 l 418 208 l 344 208 m 281 0 l 317 208 l 244 208 l 318 625 l 390 625 l 426 833 l 285 833 l 122 694 l 24 139 l 139 0 l 281 0 z "},"Т":{"ha":764,"x_min":92,"x_max":840,"o":"m 361 833 l 325 625 l 283 625 l 265 521 l 92 521 l 146 833 l 361 833 m 589 625 l 625 833 l 840 833 l 786 521 l 613 521 l 631 625 l 589 625 m 597 833 l 488 208 l 557 208 l 521 0 l 174 0 l 210 208 l 279 208 l 389 833 l 597 833 z "},"У":{"ha":736,"x_min":110,"x_max":813,"o":"m 515 446 l 474 208 l 543 208 l 507 0 l 160 0 l 196 208 l 265 208 l 297 386 l 207 625 l 110 625 l 146 833 l 368 833 l 515 446 m 547 446 l 679 625 l 776 625 l 813 833 l 590 833 l 467 663 l 547 446 z "},"Х":{"ha":736,"x_min":0,"x_max":813,"o":"m 467 663 l 590 833 l 813 833 l 776 625 l 679 625 l 547 446 l 467 663 m 606 208 l 703 208 l 667 0 l 444 0 l 207 625 l 110 625 l 146 833 l 368 833 l 606 208 m 346 171 l 222 0 l 0 0 l 36 208 l 133 208 l 265 388 l 346 171 z "},"Б":{"ha":694,"x_min":0,"x_max":771,"o":"m 342 208 l 453 208 l 478 347 l 367 347 l 403 556 l 583 556 l 697 417 l 649 139 l 486 0 l 306 0 l 342 208 m 0 0 l 36 208 l 106 208 l 179 625 l 110 625 l 146 833 l 424 833 l 278 0 l 0 0 m 451 833 l 771 833 l 735 625 l 415 625 l 451 833 z "},"Г":{"ha":694,"x_min":0,"x_max":771,"o":"m 314 208 l 383 208 l 347 0 l 0 0 l 36 208 l 106 208 l 179 625 l 110 625 l 146 833 l 424 833 l 314 208 m 451 833 l 771 833 l 717 521 l 508 521 l 526 625 l 415 625 l 451 833 z "},"Ж":{"ha":972,"x_min":0,"x_max":1049,"o":"m 208 0 l 0 0 l 36 208 l 119 208 l 272 417 l 193 625 l 110 625 l 146 833 l 354 833 l 431 633 l 354 200 l 208 0 m 493 833 l 701 833 l 556 0 l 347 0 l 493 833 m 840 833 l 1049 833 l 1013 625 l 929 625 l 775 417 l 856 208 l 939 208 l 903 0 l 694 0 l 618 200 l 694 633 l 840 833 z "},"Л":{"ha":799,"x_min":0,"x_max":875,"o":"m 533 625 l 457 625 l 247 0 l 0 0 l 36 208 l 106 208 l 314 833 l 569 833 l 533 625 m 597 833 l 875 833 l 839 625 l 769 625 l 696 208 l 765 208 l 729 0 l 382 0 l 418 208 l 488 208 l 597 833 z "},"П":{"ha":764,"x_min":0,"x_max":840,"o":"m 278 0 l 0 0 l 36 208 l 106 208 l 179 625 l 110 625 l 146 833 l 424 833 l 278 0 m 451 833 l 840 833 l 804 625 l 735 625 l 661 208 l 731 208 l 694 0 l 417 0 l 526 625 l 415 625 l 451 833 z "},"Ь":{"ha":694,"x_min":0,"x_max":697,"o":"m 0 0 l 36 208 l 106 208 l 179 625 l 110 625 l 146 833 l 493 833 l 457 625 l 388 625 l 278 0 l 0 0 m 453 208 l 478 347 l 367 347 l 403 556 l 583 556 l 697 417 l 649 139 l 486 0 l 306 0 l 342 208 l 453 208 z "},"Ъ":{"ha":833,"x_min":110,"x_max":836,"o":"m 139 0 l 175 208 l 244 208 l 354 833 l 632 833 l 596 625 l 526 625 l 417 0 l 139 0 m 592 208 l 617 347 l 506 347 l 542 556 l 722 556 l 836 417 l 788 139 l 625 0 l 444 0 l 481 208 l 592 208 m 110 625 l 146 833 l 326 833 l 290 625 l 110 625 z "},"Ы":{"ha":1111,"x_min":0,"x_max":1188,"o":"m 0 0 l 36 208 l 106 208 l 179 625 l 110 625 l 146 833 l 493 833 l 457 625 l 388 625 l 278 0 l 0 0 m 453 208 l 478 347 l 367 347 l 403 556 l 583 556 l 697 417 l 649 139 l 486 0 l 306 0 l 342 208 l 453 208 m 1188 833 l 1151 625 l 1082 625 l 1008 208 l 1078 208 l 1042 0 l 694 0 l 731 208 l 800 208 l 874 625 l 804 625 l 840 833 l 1188 833 z "},"Я":{"ha":742,"x_min":0,"x_max":818,"o":"m 415 278 l 353 278 l 228 0 l 0 0 l 36 208 l 106 208 l 183 382 l 126 451 l 169 694 l 332 833 l 513 833 l 476 625 l 365 625 l 340 486 l 451 486 l 415 278 m 540 833 l 818 833 l 782 625 l 713 625 l 639 208 l 708 208 l 672 0 l 394 0 l 540 833 z "},"Ю":{"ha":1007,"x_min":0,"x_max":1060,"o":"m 332 313 l 278 0 l 0 0 l 36 208 l 106 208 l 179 625 l 110 625 l 146 833 l 424 833 l 369 521 l 411 521 l 374 313 l 332 313 m 944 833 l 1060 694 l 961 139 l 799 0 l 656 0 l 692 208 l 765 208 l 839 625 l 765 625 l 801 833 l 944 833 m 486 0 l 371 139 l 469 694 l 632 833 l 774 833 l 738 625 l 665 625 l 592 208 l 664 208 l 628 0 l 486 0 z "},"ю":{"ha":1007,"x_min":0,"x_max":1060,"o":"m 332 313 l 278 0 l 0 0 l 36 208 l 106 208 l 179 625 l 110 625 l 146 833 l 424 833 l 369 521 l 411 521 l 374 313 l 332 313 m 944 833 l 1060 694 l 961 139 l 799 0 l 656 0 l 692 208 l 765 208 l 839 625 l 765 625 l 801 833 l 944 833 m 486 0 l 371 139 l 469 694 l 632 833 l 774 833 l 738 625 l 665 625 l 592 208 l 664 208 l 628 0 l 486 0 z "},"Њ":{"ha":1042,"x_min":0,"x_max":1044,"o":"m 278 0 l 0 0 l 36 208 l 106 208 l 179 625 l 110 625 l 146 833 l 424 833 l 278 0 m 417 0 l 471 313 l 360 313 l 397 521 l 508 521 l 563 833 l 840 833 l 804 625 l 735 625 l 625 0 l 417 0 m 800 208 l 825 347 l 714 347 l 750 556 l 931 556 l 1044 417 l 996 139 l 833 0 l 653 0 l 689 208 l 800 208 z "},"Д":{"ha":799,"x_min":-11,"x_max":875,"o":"m 597 833 l 875 833 l 839 625 l 769 625 l 696 208 l 765 208 l 717 -69 l 508 -69 l 521 0 l 451 0 l 597 833 m 208 0 l 196 -69 l -11 -69 l 36 208 l 106 208 l 314 833 l 569 833 l 533 625 l 457 625 l 317 208 l 460 208 l 424 0 l 208 0 z "},"З":{"ha":639,"x_min":24,"x_max":692,"o":"m 381 625 l 318 625 l 300 521 l 92 521 l 122 694 l 285 833 l 417 833 l 381 625 m 271 0 l 139 0 l 24 139 l 54 313 l 263 313 l 244 208 l 307 208 l 271 0 m 397 208 l 422 347 l 269 347 l 293 486 l 446 486 l 471 625 l 408 625 l 444 833 l 576 833 l 692 694 l 654 486 l 572 417 l 631 347 l 593 139 l 431 0 l 299 0 l 335 208 l 397 208 z "},"Ф":{"ha":833,"x_min":42,"x_max":867,"o":"m 268 104 l 157 104 l 42 243 l 103 590 l 267 729 l 378 729 l 342 521 l 300 521 l 263 313 l 304 313 l 268 104 m 424 833 l 632 833 l 486 0 l 278 0 l 424 833 m 610 313 l 647 521 l 606 521 l 642 729 l 753 729 l 867 590 l 806 243 l 643 104 l 532 104 l 568 313 l 610 313 z "},"ф":{"ha":833,"x_min":42,"x_max":867,"o":"m 268 104 l 157 104 l 42 243 l 103 590 l 267 729 l 378 729 l 342 521 l 300 521 l 263 313 l 304 313 l 268 104 m 424 833 l 632 833 l 486 0 l 278 0 l 424 833 m 610 313 l 647 521 l 606 521 l 642 729 l 753 729 l 867 590 l 806 243 l 643 104 l 532 104 l 568 313 l 610 313 z "},"Й":{"ha":764,"x_min":0,"x_max":840,"o":"m 308 965 l 358 1103 l 532 1053 l 725 1103 l 725 965 l 503 889 l 308 965 m 840 833 l 804 625 l 665 625 l 236 0 l 0 0 l 36 208 l 175 208 l 604 833 l 840 833 m 163 236 l 110 236 l 179 625 l 110 625 l 146 833 l 424 833 l 372 540 l 163 236 m 729 597 l 661 208 l 731 208 l 694 0 l 417 0 l 468 293 l 676 597 l 729 597 z "},"Џ":{"ha":764,"x_min":0,"x_max":840,"o":"m 361 0 l 397 208 l 453 208 l 563 833 l 840 833 l 804 625 l 735 625 l 661 208 l 731 208 l 694 0 l 361 0 m 446 -28 l 439 -69 l 231 -69 l 238 -28 l 446 -28 m 333 0 l 0 0 l 36 208 l 106 208 l 179 625 l 110 625 l 146 833 l 424 833 l 314 208 l 369 208 l 333 0 z "},"Э":{"ha":639,"x_min":24,"x_max":692,"o":"m 381 625 l 318 625 l 300 521 l 92 521 l 122 694 l 285 833 l 417 833 l 381 625 m 271 0 l 139 0 l 24 139 l 54 313 l 263 313 l 244 208 l 307 208 l 271 0 m 397 208 l 422 347 l 269 347 l 293 486 l 446 486 l 471 625 l 408 625 l 444 833 l 576 833 l 692 694 l 593 139 l 431 0 l 299 0 l 335 208 l 397 208 z "},"Ц":{"ha":764,"x_min":0,"x_max":840,"o":"m 417 0 l 563 833 l 840 833 l 804 625 l 735 625 l 661 208 l 731 208 l 682 -69 l 474 -69 l 486 0 l 417 0 m 389 0 l 0 0 l 36 208 l 106 208 l 179 625 l 110 625 l 146 833 l 424 833 l 314 208 l 425 208 l 389 0 z "},"Ш":{"ha":1111,"x_min":0,"x_max":1188,"o":"m 653 0 l 689 208 l 800 208 l 910 833 l 1188 833 l 1151 625 l 1082 625 l 1008 208 l 1078 208 l 1042 0 l 653 0 m 625 0 l 417 0 l 563 833 l 771 833 l 625 0 m 389 0 l 0 0 l 36 208 l 106 208 l 179 625 l 110 625 l 146 833 l 424 833 l 314 208 l 425 208 l 389 0 z "},"Щ":{"ha":1111,"x_min":0,"x_max":1188,"o":"m 653 0 l 689 208 l 800 208 l 910 833 l 1188 833 l 1151 625 l 1082 625 l 1008 208 l 1078 208 l 1029 -69 l 821 -69 l 833 0 l 653 0 m 625 0 l 417 0 l 563 833 l 771 833 l 625 0 m 389 0 l 0 0 l 36 208 l 106 208 l 179 625 l 110 625 l 146 833 l 424 833 l 314 208 l 425 208 l 389 0 z "},"œ":{"ha":1007,"x_min":24,"x_max":1083,"o":"m 281 0 l 139 0 l 24 139 l 122 694 l 285 833 l 426 833 l 390 625 l 318 625 l 244 208 l 317 208 l 281 0 m 703 486 l 814 486 l 790 347 l 679 347 l 703 486 m 590 0 l 308 0 l 344 208 l 418 208 l 492 625 l 418 625 l 454 833 l 736 833 l 590 0 m 654 208 l 765 208 l 783 313 l 992 313 l 938 0 l 618 0 l 654 208 m 764 833 l 1083 833 l 1029 521 l 821 521 l 839 625 l 728 625 l 764 833 z "},"Œ":{"ha":1007,"x_min":24,"x_max":1083,"o":"m 281 0 l 139 0 l 24 139 l 122 694 l 285 833 l 426 833 l 390 625 l 318 625 l 244 208 l 317 208 l 281 0 m 703 486 l 814 486 l 790 347 l 679 347 l 703 486 m 590 0 l 308 0 l 344 208 l 418 208 l 492 625 l 418 625 l 454 833 l 736 833 l 590 0 m 654 208 l 765 208 l 783 313 l 992 313 l 938 0 l 618 0 l 654 208 m 764 833 l 1083 833 l 1029 521 l 821 521 l 839 625 l 728 625 l 764 833 z "},"Á":{"ha":764,"x_min":0,"x_max":754,"o":"m 247 0 l 0 0 l 36 208 l 106 208 l 314 833 l 431 833 l 426 535 l 247 0 m 401 375 l 453 375 l 460 833 l 672 833 l 661 208 l 731 208 l 694 0 l 447 0 l 450 208 l 346 208 l 401 375 m 370 1026 l 755 1103 l 755 932 l 370 889 l 370 1026 z "},"Ă":{"ha":764,"x_min":0,"x_max":731,"o":"m 247 0 l 0 0 l 36 208 l 106 208 l 314 833 l 431 833 l 426 535 l 247 0 m 401 375 l 453 375 l 460 833 l 672 833 l 661 208 l 731 208 l 694 0 l 447 0 l 450 208 l 346 208 l 401 375 m 306 954 l 354 1092 l 529 1042 l 721 1092 l 722 954 l 500 878 l 306 954 z "},"Â":{"ha":764,"x_min":0,"x_max":751,"o":"m 247 0 l 0 0 l 36 208 l 106 208 l 314 833 l 431 833 l 426 535 l 247 0 m 401 375 l 453 375 l 460 833 l 672 833 l 661 208 l 731 208 l 694 0 l 447 0 l 450 208 l 346 208 l 401 375 m 548 1104 l 753 1028 l 701 891 l 518 941 l 318 891 l 318 1028 l 548 1104 z "},"À":{"ha":764,"x_min":0,"x_max":731,"o":"m 247 0 l 0 0 l 36 208 l 106 208 l 314 833 l 431 833 l 426 535 l 247 0 m 401 375 l 453 375 l 460 833 l 672 833 l 661 208 l 731 208 l 694 0 l 447 0 l 450 208 l 346 208 l 401 375 m 651 892 l 315 935 l 375 1106 l 701 1029 l 651 892 z "},"Ä":{"ha":764,"x_min":0,"x_max":742,"o":"m 247 0 l 0 0 l 36 208 l 106 208 l 314 833 l 431 833 l 426 535 l 247 0 m 401 375 l 453 375 l 460 833 l 672 833 l 661 208 l 731 208 l 694 0 l 447 0 l 450 208 l 346 208 l 401 375 m 325 1065 l 499 1065 l 468 892 l 294 892 l 325 1065 m 568 1065 l 742 1065 l 711 892 l 538 892 l 568 1065 z "},"¯":{"ha":694,"x_min":263,"x_max":707,"o":"m 707 1056 l 679 903 l 263 903 l 290 1056 l 707 1056 z "},"Ā":{"ha":764,"x_min":0,"x_max":739,"o":"m 247 0 l 0 0 l 36 208 l 106 208 l 314 833 l 431 833 l 426 535 l 247 0 m 401 375 l 453 375 l 460 833 l 672 833 l 661 208 l 731 208 l 694 0 l 447 0 l 450 208 l 346 208 l 401 375 m 739 1044 l 711 892 l 294 892 l 322 1044 l 739 1044 z "},"Ã":{"ha":764,"x_min":0,"x_max":740,"o":"m 247 0 l 0 0 l 36 208 l 106 208 l 314 833 l 431 833 l 426 535 l 247 0 m 401 375 l 453 375 l 460 833 l 672 833 l 661 208 l 731 208 l 694 0 l 447 0 l 450 208 l 346 208 l 401 375 m 740 968 l 622 892 l 422 940 l 310 892 l 310 1029 l 426 1106 l 626 1057 l 739 1106 l 740 968 z "},"Ą":{"ha":764,"x_min":0,"x_max":731,"o":"m 447 0 l 450 208 l 346 208 l 401 375 l 453 375 l 460 833 l 672 833 l 661 208 l 731 208 l 694 0 l 447 0 m 621 -28 l 583 -83 l 667 -83 l 647 -194 l 425 -194 l 444 -83 l 482 -28 l 621 -28 m 247 0 l 0 0 l 36 208 l 106 208 l 314 833 l 431 833 l 426 535 l 247 0 z "},"˚":{"ha":1157,"x_min":374,"x_max":676,"o":"m 432 875 l 374 944 l 399 1083 l 481 1153 l 619 1153 l 676 1083 l 651 944 l 571 875 l 432 875 m 485 979 l 554 979 l 567 1049 l 497 1049 l 485 979 z "},"Å":{"ha":764,"x_min":0,"x_max":731,"o":"m 247 0 l 0 0 l 36 208 l 106 208 l 314 833 l 431 833 l 426 535 l 247 0 m 401 375 l 453 375 l 460 833 l 672 833 l 661 208 l 731 208 l 694 0 l 447 0 l 450 208 l 346 208 l 401 375 m 432 875 l 374 944 l 399 1083 l 481 1153 l 619 1153 l 676 1083 l 651 944 l 571 875 l 432 875 m 485 979 l 554 979 l 567 1049 l 497 1049 l 485 979 z "},"˙":{"ha":694,"x_min":471,"x_max":675,"o":"m 501 1076 l 675 1076 l 644 903 l 471 903 l 501 1076 z "},"Ć":{"ha":660,"x_min":24,"x_max":736,"o":"m 418 625 l 454 833 l 736 833 l 682 521 l 474 521 l 492 625 l 418 625 m 344 208 l 308 0 l 590 0 l 644 313 l 436 313 l 418 208 l 344 208 m 281 0 l 317 208 l 244 208 l 318 625 l 390 625 l 426 833 l 285 833 l 122 694 l 24 139 l 139 0 l 281 0 m 306 1026 l 658 1103 l 658 932 l 306 889 l 306 1026 z "},"Č":{"ha":660,"x_min":24,"x_max":736,"o":"m 418 625 l 454 833 l 736 833 l 682 521 l 474 521 l 492 625 l 418 625 m 344 208 l 308 0 l 590 0 l 644 313 l 436 313 l 418 208 l 344 208 m 281 0 l 317 208 l 244 208 l 318 625 l 390 625 l 426 833 l 285 833 l 122 694 l 24 139 l 139 0 l 281 0 m 257 954 l 306 1092 l 481 1042 l 672 1092 l 674 954 l 451 878 l 257 954 z "},"Ç":{"ha":660,"x_min":24,"x_max":736,"o":"m 418 625 l 454 833 l 736 833 l 682 521 l 474 521 l 492 625 l 418 625 m 196 -28 l 397 -28 l 322 -139 l 149 -139 l 196 -28 m 139 0 l 24 139 l 122 694 l 285 833 l 426 833 l 390 625 l 318 625 l 244 208 l 317 208 l 281 0 l 139 0 m 590 0 l 644 313 l 436 313 l 418 208 l 344 208 l 308 0 l 590 0 z "},"ç":{"ha":660,"x_min":24,"x_max":736,"o":"m 418 625 l 454 833 l 736 833 l 682 521 l 474 521 l 492 625 l 418 625 m 196 -28 l 397 -28 l 322 -139 l 149 -139 l 196 -28 m 139 0 l 24 139 l 122 694 l 285 833 l 426 833 l 390 625 l 318 625 l 244 208 l 317 208 l 281 0 l 139 0 m 590 0 l 644 313 l 436 313 l 418 208 l 344 208 l 308 0 l 590 0 z "},"Ĉ":{"ha":660,"x_min":24,"x_max":736,"o":"m 418 625 l 454 833 l 736 833 l 682 521 l 474 521 l 492 625 l 418 625 m 344 208 l 308 0 l 590 0 l 644 313 l 436 313 l 418 208 l 344 208 m 281 0 l 317 208 l 244 208 l 318 625 l 390 625 l 426 833 l 285 833 l 122 694 l 24 139 l 139 0 l 281 0 m 492 1106 l 688 1029 l 638 892 l 463 942 l 271 892 l 271 1029 l 492 1106 z "},"Ċ":{"ha":660,"x_min":24,"x_max":736,"o":"m 418 625 l 454 833 l 736 833 l 682 521 l 474 521 l 492 625 l 418 625 m 344 208 l 308 0 l 590 0 l 644 313 l 436 313 l 418 208 l 344 208 m 281 0 l 317 208 l 244 208 l 318 625 l 390 625 l 426 833 l 285 833 l 122 694 l 24 139 l 139 0 l 281 0 m 399 1065 l 572 1065 l 542 892 l 368 892 l 399 1065 z "},"Đ":{"ha":729,"x_min":0,"x_max":782,"o":"m 342 208 l 488 208 l 561 625 l 415 625 l 451 833 l 667 833 l 782 694 l 683 139 l 521 0 l 306 0 l 342 208 m 336 333 l 278 0 l 0 0 l 36 208 l 106 208 l 128 333 l 58 333 l 88 500 l 157 500 l 179 625 l 110 625 l 146 833 l 424 833 l 365 500 l 435 500 l 406 333 l 336 333 z "},"Ď":{"ha":729,"x_min":0,"x_max":782,"o":"m 342 208 l 488 208 l 561 625 l 415 625 l 451 833 l 667 833 l 782 694 l 683 139 l 521 0 l 306 0 l 342 208 m 278 0 l 0 0 l 36 208 l 106 208 l 179 625 l 110 625 l 146 833 l 424 833 l 278 0 m 288 954 l 336 1092 l 511 1042 l 703 1092 l 704 954 l 482 878 l 288 954 z "},"É":{"ha":694,"x_min":0,"x_max":771,"o":"m 390 486 l 501 486 l 478 347 l 367 347 l 390 486 m 278 0 l 0 0 l 36 208 l 106 208 l 179 625 l 110 625 l 146 833 l 424 833 l 278 0 m 342 208 l 453 208 l 471 313 l 679 313 l 625 0 l 306 0 l 342 208 m 451 833 l 771 833 l 717 521 l 508 521 l 526 625 l 415 625 l 451 833 m 319 1026 l 672 1103 l 672 932 l 319 889 l 319 1026 z "},"Ě":{"ha":694,"x_min":0,"x_max":771,"o":"m 390 486 l 501 486 l 478 347 l 367 347 l 390 486 m 278 0 l 0 0 l 36 208 l 106 208 l 179 625 l 110 625 l 146 833 l 424 833 l 278 0 m 342 208 l 453 208 l 471 313 l 679 313 l 625 0 l 306 0 l 342 208 m 451 833 l 771 833 l 717 521 l 508 521 l 526 625 l 415 625 l 451 833 m 275 954 l 324 1092 l 499 1042 l 690 1092 l 692 954 l 469 878 l 275 954 z "},"Ê":{"ha":694,"x_min":0,"x_max":771,"o":"m 390 486 l 501 486 l 478 347 l 367 347 l 390 486 m 278 0 l 0 0 l 36 208 l 106 208 l 179 625 l 110 625 l 146 833 l 424 833 l 278 0 m 342 208 l 453 208 l 471 313 l 679 313 l 625 0 l 306 0 l 342 208 m 451 833 l 771 833 l 717 521 l 508 521 l 526 625 l 415 625 l 451 833 m 508 1106 l 704 1029 l 654 892 l 479 942 l 288 892 l 288 1029 l 508 1106 z "},"Ë":{"ha":694,"x_min":0,"x_max":771,"o":"m 390 486 l 501 486 l 478 347 l 367 347 l 390 486 m 278 0 l 0 0 l 36 208 l 106 208 l 179 625 l 110 625 l 146 833 l 424 833 l 278 0 m 342 208 l 453 208 l 471 313 l 679 313 l 625 0 l 306 0 l 342 208 m 451 833 l 771 833 l 717 521 l 508 521 l 526 625 l 415 625 l 451 833 m 293 1065 l 467 1065 l 436 892 l 263 892 l 293 1065 m 536 1065 l 710 1065 l 679 892 l 506 892 l 536 1065 z "},"Ė":{"ha":694,"x_min":0,"x_max":771,"o":"m 390 486 l 501 486 l 478 347 l 367 347 l 390 486 m 278 0 l 0 0 l 36 208 l 106 208 l 179 625 l 110 625 l 146 833 l 424 833 l 278 0 m 342 208 l 453 208 l 471 313 l 679 313 l 625 0 l 306 0 l 342 208 m 451 833 l 771 833 l 717 521 l 508 521 l 526 625 l 415 625 l 451 833 m 415 1065 l 589 1065 l 558 892 l 385 892 l 415 1065 z "},"È":{"ha":694,"x_min":0,"x_max":771,"o":"m 390 486 l 501 486 l 478 347 l 367 347 l 390 486 m 278 0 l 0 0 l 36 208 l 106 208 l 179 625 l 110 625 l 146 833 l 424 833 l 278 0 m 342 208 l 453 208 l 471 313 l 679 313 l 625 0 l 306 0 l 342 208 m 451 833 l 771 833 l 717 521 l 508 521 l 526 625 l 415 625 l 451 833 m 621 892 l 285 935 l 344 1106 l 671 1029 l 621 892 z "},"Ē":{"ha":694,"x_min":0,"x_max":771,"o":"m 390 486 l 501 486 l 478 347 l 367 347 l 390 486 m 278 0 l 0 0 l 36 208 l 106 208 l 179 625 l 110 625 l 146 833 l 424 833 l 278 0 m 342 208 l 453 208 l 471 313 l 679 313 l 625 0 l 306 0 l 342 208 m 451 833 l 771 833 l 717 521 l 508 521 l 526 625 l 415 625 l 451 833 m 707 1044 l 679 892 l 263 892 l 290 1044 l 707 1044 z "},"Ę":{"ha":694,"x_min":0,"x_max":771,"o":"m 606 -28 l 568 -83 l 651 -83 l 632 -194 l 410 -194 l 429 -83 l 467 -28 l 606 -28 m 390 486 l 501 486 l 478 347 l 367 347 l 390 486 m 278 0 l 0 0 l 36 208 l 106 208 l 179 625 l 110 625 l 146 833 l 424 833 l 278 0 m 342 208 l 453 208 l 471 313 l 679 313 l 625 0 l 306 0 l 342 208 m 451 833 l 771 833 l 717 521 l 508 521 l 526 625 l 415 625 l 451 833 z "},"Ğ":{"ha":660,"x_min":24,"x_max":736,"o":"m 344 208 l 418 208 l 436 313 l 332 313 l 360 465 l 672 465 l 590 0 l 308 0 l 344 208 m 454 833 l 736 833 l 682 521 l 474 521 l 492 625 l 418 625 l 454 833 m 281 0 l 317 208 l 244 208 l 318 625 l 390 625 l 426 833 l 285 833 l 122 694 l 24 139 l 139 0 l 281 0 m 257 954 l 306 1092 l 481 1042 l 672 1092 l 674 954 l 451 878 l 257 954 z "},"Ĝ":{"ha":660,"x_min":24,"x_max":736,"o":"m 344 208 l 418 208 l 436 313 l 332 313 l 360 465 l 672 465 l 590 0 l 308 0 l 344 208 m 454 833 l 736 833 l 682 521 l 474 521 l 492 625 l 418 625 l 454 833 m 281 0 l 317 208 l 244 208 l 318 625 l 390 625 l 426 833 l 285 833 l 122 694 l 24 139 l 139 0 l 281 0 m 492 1106 l 688 1029 l 638 892 l 463 942 l 271 892 l 271 1029 l 492 1106 z "},"Ģ":{"ha":660,"x_min":24,"x_max":736,"o":"m 344 208 l 418 208 l 436 313 l 332 313 l 360 465 l 672 465 l 590 0 l 308 0 l 344 208 m 454 833 l 736 833 l 682 521 l 474 521 l 492 625 l 418 625 l 454 833 m 281 0 l 317 208 l 244 208 l 318 625 l 390 625 l 426 833 l 285 833 l 122 694 l 24 139 l 139 0 l 281 0 m 408 -39 l 314 -178 l 140 -178 l 200 -39 l 408 -39 z "},"Ġ":{"ha":660,"x_min":24,"x_max":736,"o":"m 344 208 l 418 208 l 436 313 l 332 313 l 360 465 l 672 465 l 590 0 l 308 0 l 344 208 m 454 833 l 736 833 l 682 521 l 474 521 l 492 625 l 418 625 l 454 833 m 281 0 l 317 208 l 244 208 l 318 625 l 390 625 l 426 833 l 285 833 l 122 694 l 24 139 l 139 0 l 281 0 m 399 1065 l 572 1065 l 542 892 l 368 892 l 399 1065 z "},"Ħ":{"ha":764,"x_min":0,"x_max":840,"o":"m 519 590 l 563 833 l 840 833 l 804 625 l 735 625 l 728 590 l 797 590 l 786 521 l 717 521 l 661 208 l 731 208 l 694 0 l 417 0 l 471 313 l 360 313 l 390 486 l 501 486 l 508 521 l 397 521 l 408 590 l 519 590 m 278 0 l 0 0 l 36 208 l 106 208 l 161 521 l 92 521 l 103 590 l 172 590 l 179 625 l 110 625 l 146 833 l 424 833 l 278 0 z "},"Ĥ":{"ha":764,"x_min":0,"x_max":840,"o":"m 397 521 l 508 521 l 563 833 l 840 833 l 804 625 l 735 625 l 661 208 l 731 208 l 694 0 l 417 0 l 471 313 l 360 313 l 397 521 m 278 0 l 0 0 l 36 208 l 106 208 l 179 625 l 110 625 l 146 833 l 424 833 l 278 0 m 540 1106 l 736 1029 l 686 892 l 511 942 l 319 892 l 319 1029 l 540 1106 z "},"Í":{"ha":417,"x_min":0,"x_max":536,"o":"m 493 833 l 457 625 l 388 625 l 314 208 l 383 208 l 347 0 l 0 0 l 36 208 l 106 208 l 179 625 l 110 625 l 146 833 l 493 833 m 183 1026 l 536 1103 l 536 932 l 183 889 l 183 1026 z "},"Î":{"ha":417,"x_min":0,"x_max":567,"o":"m 493 833 l 457 625 l 388 625 l 314 208 l 383 208 l 347 0 l 0 0 l 36 208 l 106 208 l 179 625 l 110 625 l 146 833 l 493 833 m 371 1106 l 567 1029 l 517 892 l 342 942 l 150 892 l 150 1029 l 371 1106 z "},"Ï":{"ha":417,"x_min":0,"x_max":572,"o":"m 493 833 l 457 625 l 388 625 l 314 208 l 383 208 l 347 0 l 0 0 l 36 208 l 106 208 l 179 625 l 110 625 l 146 833 l 493 833 m 156 1065 l 329 1065 l 299 892 l 125 892 l 156 1065 m 399 1065 l 572 1065 l 542 892 l 368 892 l 399 1065 z "},"İ":{"ha":417,"x_min":0,"x_max":493,"o":"m 493 833 l 457 625 l 388 625 l 314 208 l 383 208 l 347 0 l 0 0 l 36 208 l 106 208 l 179 625 l 110 625 l 146 833 l 493 833 m 276 1065 l 450 1065 l 419 892 l 246 892 l 276 1065 z "},"Ì":{"ha":417,"x_min":0,"x_max":532,"o":"m 493 833 l 457 625 l 388 625 l 314 208 l 383 208 l 347 0 l 0 0 l 36 208 l 106 208 l 179 625 l 110 625 l 146 833 l 493 833 m 482 892 l 146 935 l 206 1106 l 532 1029 l 482 892 z "},"Į":{"ha":417,"x_min":0,"x_max":493,"o":"m 347 0 l 0 0 l 36 208 l 106 208 l 179 625 l 110 625 l 146 833 l 493 833 l 457 625 l 388 625 l 314 208 l 383 208 l 347 0 m 328 -28 l 290 -83 l 374 -83 l 354 -194 l 132 -194 l 151 -83 l 189 -28 l 328 -28 z "},"Ĵ":{"ha":694,"x_min":24,"x_max":840,"o":"m 292 0 l 328 208 l 383 208 l 457 625 l 388 625 l 424 833 l 771 833 l 735 625 l 665 625 l 579 139 l 417 0 l 292 0 m 300 208 l 264 0 l 139 0 l 24 139 l 54 313 l 263 313 l 244 208 l 300 208 m 644 1106 l 840 1029 l 790 892 l 615 942 l 424 892 l 424 1029 l 644 1106 z "},"Ķ":{"ha":708,"x_min":0,"x_max":785,"o":"m 278 0 l 0 0 l 36 208 l 106 208 l 179 625 l 110 625 l 146 833 l 424 833 l 278 0 m 417 633 l 340 200 l 417 0 l 639 0 l 675 208 l 578 208 l 497 417 l 651 625 l 749 625 l 785 833 l 563 833 l 417 633 m 432 -39 l 338 -178 l 164 -178 l 224 -39 l 432 -39 z "},"Ĺ":{"ha":694,"x_min":0,"x_max":679,"o":"m 306 0 l 342 208 l 453 208 l 471 313 l 679 313 l 625 0 l 306 0 m 278 0 l 0 0 l 36 208 l 106 208 l 179 625 l 110 625 l 146 833 l 493 833 l 457 625 l 388 625 l 278 0 m 183 1026 l 536 1103 l 536 932 l 183 889 l 183 1026 z "},"Ļ":{"ha":694,"x_min":0,"x_max":679,"o":"m 306 0 l 342 208 l 453 208 l 471 313 l 679 313 l 625 0 l 306 0 m 278 0 l 0 0 l 36 208 l 106 208 l 179 625 l 110 625 l 146 833 l 493 833 l 457 625 l 388 625 l 278 0 m 425 -39 l 331 -178 l 157 -178 l 217 -39 l 425 -39 z "},"Ń":{"ha":764,"x_min":0,"x_max":840,"o":"m 382 833 l 592 208 l 731 208 l 694 0 l 458 0 l 249 625 l 110 625 l 146 833 l 382 833 m 511 540 l 563 833 l 840 833 l 804 625 l 735 625 l 665 236 l 613 236 l 511 540 m 174 597 l 106 208 l 36 208 l 0 0 l 278 0 l 329 293 l 226 597 l 174 597 m 335 1026 l 688 1103 l 688 932 l 335 889 l 335 1026 z "},"Ň":{"ha":764,"x_min":0,"x_max":840,"o":"m 382 833 l 592 208 l 731 208 l 694 0 l 458 0 l 249 625 l 110 625 l 146 833 l 382 833 m 511 540 l 563 833 l 840 833 l 804 625 l 735 625 l 665 236 l 613 236 l 511 540 m 174 597 l 106 208 l 36 208 l 0 0 l 278 0 l 329 293 l 226 597 l 174 597 m 306 954 l 354 1092 l 529 1042 l 721 1092 l 722 954 l 500 878 l 306 954 z "},"Ņ":{"ha":764,"x_min":0,"x_max":840,"o":"m 382 833 l 592 208 l 731 208 l 694 0 l 458 0 l 249 625 l 110 625 l 146 833 l 382 833 m 511 540 l 563 833 l 840 833 l 804 625 l 735 625 l 665 236 l 613 236 l 511 540 m 174 597 l 106 208 l 36 208 l 0 0 l 278 0 l 329 293 l 226 597 l 174 597 m 460 -39 l 365 -178 l 192 -178 l 251 -39 l 460 -39 z "},"Ñ":{"ha":764,"x_min":0,"x_max":840,"o":"m 382 833 l 592 208 l 731 208 l 694 0 l 458 0 l 249 625 l 110 625 l 146 833 l 382 833 m 511 540 l 563 833 l 840 833 l 804 625 l 735 625 l 665 236 l 613 236 l 511 540 m 174 597 l 106 208 l 36 208 l 0 0 l 278 0 l 329 293 l 226 597 l 174 597 m 740 968 l 622 892 l 422 940 l 310 892 l 310 1029 l 426 1106 l 626 1057 l 739 1106 l 740 968 z "},"Ó":{"ha":660,"x_min":24,"x_max":713,"o":"m 597 833 l 713 694 l 614 139 l 451 0 l 308 0 l 344 208 l 418 208 l 492 625 l 418 625 l 454 833 l 597 833 m 139 0 l 24 139 l 122 694 l 285 833 l 426 833 l 390 625 l 318 625 l 244 208 l 317 208 l 281 0 l 139 0 m 306 1026 l 658 1103 l 658 932 l 306 889 l 306 1026 z "},"Ô":{"ha":660,"x_min":24,"x_max":713,"o":"m 597 833 l 713 694 l 614 139 l 451 0 l 308 0 l 344 208 l 418 208 l 492 625 l 418 625 l 454 833 l 597 833 m 139 0 l 24 139 l 122 694 l 285 833 l 426 833 l 390 625 l 318 625 l 244 208 l 317 208 l 281 0 l 139 0 m 492 1106 l 688 1029 l 638 892 l 463 942 l 271 892 l 271 1029 l 492 1106 z "},"Ö":{"ha":660,"x_min":24,"x_max":713,"o":"m 597 833 l 713 694 l 614 139 l 451 0 l 308 0 l 344 208 l 418 208 l 492 625 l 418 625 l 454 833 l 597 833 m 139 0 l 24 139 l 122 694 l 285 833 l 426 833 l 390 625 l 318 625 l 244 208 l 317 208 l 281 0 l 139 0 m 276 1065 l 450 1065 l 419 892 l 246 892 l 276 1065 m 519 1065 l 693 1065 l 663 892 l 489 892 l 519 1065 z "},"Ò":{"ha":660,"x_min":24,"x_max":713,"o":"m 597 833 l 713 694 l 614 139 l 451 0 l 308 0 l 344 208 l 418 208 l 492 625 l 418 625 l 454 833 l 597 833 m 139 0 l 24 139 l 122 694 l 285 833 l 426 833 l 390 625 l 318 625 l 244 208 l 317 208 l 281 0 l 139 0 m 603 892 l 267 935 l 326 1106 l 653 1029 l 603 892 z "},"˝":{"ha":694,"x_min":263,"x_max":710,"o":"m 356 1076 l 508 1076 l 415 903 l 263 903 l 356 1076 m 557 1076 l 710 1076 l 617 903 l 464 903 l 557 1076 z "},"Ő":{"ha":660,"x_min":24,"x_max":721,"o":"m 597 833 l 713 694 l 614 139 l 451 0 l 308 0 l 344 208 l 418 208 l 492 625 l 418 625 l 454 833 l 597 833 m 139 0 l 24 139 l 122 694 l 285 833 l 426 833 l 390 625 l 318 625 l 244 208 l 317 208 l 281 0 l 139 0 m 367 1065 l 519 1065 l 426 892 l 274 892 l 367 1065 m 568 1065 l 721 1065 l 628 892 l 475 892 l 568 1065 z "},"Õ":{"ha":660,"x_min":24,"x_max":713,"o":"m 597 833 l 713 694 l 614 139 l 451 0 l 308 0 l 344 208 l 418 208 l 492 625 l 418 625 l 454 833 l 597 833 m 139 0 l 24 139 l 122 694 l 285 833 l 426 833 l 390 625 l 318 625 l 244 208 l 317 208 l 281 0 l 139 0 m 689 968 l 571 892 l 371 940 l 258 892 l 258 1029 l 375 1106 l 575 1057 l 688 1106 l 689 968 z "},"Ŕ":{"ha":742,"x_min":0,"x_max":747,"o":"m 390 486 l 501 486 l 526 625 l 415 625 l 451 833 l 632 833 l 747 694 l 704 451 l 622 382 l 639 208 l 708 208 l 672 0 l 444 0 l 417 278 l 354 278 l 390 486 m 278 0 l 0 0 l 36 208 l 106 208 l 179 625 l 110 625 l 146 833 l 424 833 l 278 0 m 329 1026 l 682 1103 l 682 932 l 329 889 l 329 1026 z "},"Ř":{"ha":742,"x_min":0,"x_max":747,"o":"m 390 486 l 501 486 l 526 625 l 415 625 l 451 833 l 632 833 l 747 694 l 704 451 l 622 382 l 639 208 l 708 208 l 672 0 l 444 0 l 417 278 l 354 278 l 390 486 m 278 0 l 0 0 l 36 208 l 106 208 l 179 625 l 110 625 l 146 833 l 424 833 l 278 0 m 294 954 l 343 1092 l 518 1042 l 710 1092 l 711 954 l 489 878 l 294 954 z "},"Ŗ":{"ha":742,"x_min":0,"x_max":747,"o":"m 390 486 l 501 486 l 526 625 l 415 625 l 451 833 l 632 833 l 747 694 l 704 451 l 622 382 l 639 208 l 708 208 l 672 0 l 444 0 l 417 278 l 354 278 l 390 486 m 278 0 l 0 0 l 36 208 l 106 208 l 179 625 l 110 625 l 146 833 l 424 833 l 278 0 m 449 -39 l 354 -178 l 181 -178 l 240 -39 l 449 -39 z "},"Ś":{"ha":639,"x_min":0,"x_max":715,"o":"m 444 833 l 715 833 l 667 556 l 458 556 l 471 625 l 408 625 l 444 833 m 271 0 l 0 0 l 49 278 l 257 278 l 244 208 l 307 208 l 271 0 m 335 208 l 397 208 l 411 285 l 69 396 l 122 694 l 285 833 l 417 833 l 381 625 l 318 625 l 304 549 l 646 438 l 593 139 l 431 0 l 299 0 l 335 208 m 310 1026 l 663 1103 l 663 932 l 310 889 l 310 1026 z "},"Š":{"ha":639,"x_min":0,"x_max":715,"o":"m 444 833 l 715 833 l 667 556 l 458 556 l 471 625 l 408 625 l 444 833 m 271 0 l 0 0 l 49 278 l 257 278 l 244 208 l 307 208 l 271 0 m 335 208 l 397 208 l 411 285 l 69 396 l 122 694 l 285 833 l 417 833 l 381 625 l 318 625 l 304 549 l 646 438 l 593 139 l 431 0 l 299 0 l 335 208 m 247 954 l 296 1092 l 471 1042 l 663 1092 l 664 954 l 442 878 l 247 954 z "},"Ş":{"ha":639,"x_min":0,"x_max":715,"o":"m 444 833 l 715 833 l 667 556 l 458 556 l 471 625 l 408 625 l 444 833 m 271 0 l 0 0 l 49 278 l 257 278 l 244 208 l 307 208 l 271 0 m 335 208 l 397 208 l 411 285 l 69 396 l 122 694 l 285 833 l 417 833 l 381 625 l 318 625 l 304 549 l 646 438 l 593 139 l 431 0 l 299 0 l 335 208 m 399 -39 l 304 -178 l 131 -178 l 190 -39 l 399 -39 z "},"Ŝ":{"ha":639,"x_min":0,"x_max":715,"o":"m 444 833 l 715 833 l 667 556 l 458 556 l 471 625 l 408 625 l 444 833 m 271 0 l 0 0 l 49 278 l 257 278 l 244 208 l 307 208 l 271 0 m 335 208 l 397 208 l 411 285 l 69 396 l 122 694 l 285 833 l 417 833 l 381 625 l 318 625 l 304 549 l 646 438 l 593 139 l 431 0 l 299 0 l 335 208 m 482 1106 l 678 1029 l 628 892 l 453 942 l 261 892 l 261 1029 l 482 1106 z "},"Ș":{"ha":639,"x_min":0,"x_max":715,"o":"m 444 833 l 715 833 l 667 556 l 458 556 l 471 625 l 408 625 l 444 833 m 271 0 l 0 0 l 49 278 l 257 278 l 244 208 l 307 208 l 271 0 m 335 208 l 397 208 l 411 285 l 69 396 l 122 694 l 285 833 l 417 833 l 381 625 l 318 625 l 304 549 l 646 438 l 593 139 l 431 0 l 299 0 l 335 208 m 399 -39 l 304 -178 l 131 -178 l 190 -39 l 399 -39 z "},"Ť":{"ha":764,"x_min":92,"x_max":840,"o":"m 361 833 l 325 625 l 283 625 l 265 521 l 92 521 l 146 833 l 361 833 m 589 625 l 625 833 l 840 833 l 786 521 l 613 521 l 631 625 l 589 625 m 597 833 l 488 208 l 557 208 l 521 0 l 174 0 l 210 208 l 279 208 l 389 833 l 597 833 m 306 954 l 354 1092 l 529 1042 l 721 1092 l 722 954 l 500 878 l 306 954 z "},"Ţ":{"ha":764,"x_min":92,"x_max":840,"o":"m 361 833 l 325 625 l 283 625 l 265 521 l 92 521 l 146 833 l 361 833 m 589 625 l 625 833 l 840 833 l 786 521 l 613 521 l 631 625 l 589 625 m 597 833 l 488 208 l 557 208 l 521 0 l 174 0 l 210 208 l 279 208 l 389 833 l 597 833 m 460 -39 l 365 -178 l 192 -178 l 251 -39 l 460 -39 z "},"Ú":{"ha":799,"x_min":93,"x_max":875,"o":"m 378 0 l 414 208 l 488 208 l 597 833 l 875 833 l 839 625 l 769 625 l 683 139 l 521 0 l 378 0 m 350 0 l 208 0 l 93 139 l 179 625 l 110 625 l 146 833 l 424 833 l 314 208 l 386 208 l 350 0 m 342 1026 l 694 1103 l 694 932 l 342 889 l 342 1026 z "},"Ŭ":{"ha":799,"x_min":93,"x_max":875,"o":"m 378 0 l 414 208 l 488 208 l 597 833 l 875 833 l 839 625 l 769 625 l 683 139 l 521 0 l 378 0 m 350 0 l 208 0 l 93 139 l 179 625 l 110 625 l 146 833 l 424 833 l 314 208 l 386 208 l 350 0 m 322 954 l 371 1092 l 546 1042 l 738 1092 l 739 954 l 517 878 l 322 954 z "},"Û":{"ha":799,"x_min":93,"x_max":875,"o":"m 378 0 l 414 208 l 488 208 l 597 833 l 875 833 l 839 625 l 769 625 l 683 139 l 521 0 l 378 0 m 350 0 l 208 0 l 93 139 l 179 625 l 110 625 l 146 833 l 424 833 l 314 208 l 386 208 l 350 0 m 557 1106 l 753 1029 l 703 892 l 528 942 l 336 892 l 336 1029 l 557 1106 z "},"Ü":{"ha":799,"x_min":93,"x_max":875,"o":"m 378 0 l 414 208 l 488 208 l 597 833 l 875 833 l 839 625 l 769 625 l 683 139 l 521 0 l 378 0 m 350 0 l 208 0 l 93 139 l 179 625 l 110 625 l 146 833 l 424 833 l 314 208 l 386 208 l 350 0 m 342 1065 l 515 1065 l 485 892 l 311 892 l 342 1065 m 585 1065 l 758 1065 l 728 892 l 554 892 l 585 1065 z "},"Ù":{"ha":799,"x_min":93,"x_max":875,"o":"m 378 0 l 414 208 l 488 208 l 597 833 l 875 833 l 839 625 l 769 625 l 683 139 l 521 0 l 378 0 m 350 0 l 208 0 l 93 139 l 179 625 l 110 625 l 146 833 l 424 833 l 314 208 l 386 208 l 350 0 m 699 892 l 363 935 l 422 1106 l 749 1029 l 699 892 z "},"Ű":{"ha":799,"x_min":93,"x_max":875,"o":"m 378 0 l 414 208 l 488 208 l 597 833 l 875 833 l 839 625 l 769 625 l 683 139 l 521 0 l 378 0 m 350 0 l 208 0 l 93 139 l 179 625 l 110 625 l 146 833 l 424 833 l 314 208 l 386 208 l 350 0 m 436 1065 l 589 1065 l 496 892 l 343 892 l 436 1065 m 638 1065 l 790 1065 l 697 892 l 544 892 l 638 1065 z "},"Ū":{"ha":799,"x_min":93,"x_max":875,"o":"m 378 0 l 414 208 l 488 208 l 597 833 l 875 833 l 839 625 l 769 625 l 683 139 l 521 0 l 378 0 m 350 0 l 208 0 l 93 139 l 179 625 l 110 625 l 146 833 l 424 833 l 314 208 l 386 208 l 350 0 m 757 1043 l 729 892 l 313 892 l 340 1043 l 757 1043 z "},"Ų":{"ha":799,"x_min":93,"x_max":875,"o":"m 501 -28 l 464 -83 l 547 -83 l 528 -194 l 306 -194 l 325 -83 l 363 -28 l 501 -28 m 378 0 l 414 208 l 488 208 l 597 833 l 875 833 l 839 625 l 769 625 l 683 139 l 521 0 l 378 0 m 350 0 l 208 0 l 93 139 l 179 625 l 110 625 l 146 833 l 424 833 l 314 208 l 386 208 l 350 0 z "},"Ů":{"ha":799,"x_min":93,"x_max":875,"o":"m 378 0 l 414 208 l 488 208 l 597 833 l 875 833 l 839 625 l 769 625 l 683 139 l 521 0 l 378 0 m 350 0 l 208 0 l 93 139 l 179 625 l 110 625 l 146 833 l 424 833 l 314 208 l 386 208 l 350 0 m 449 875 l 390 944 l 415 1083 l 497 1153 l 636 1153 l 693 1083 l 668 944 l 588 875 l 449 875 m 501 979 l 571 979 l 583 1049 l 514 1049 l 501 979 z "},"Ŵ":{"ha":1097,"x_min":110,"x_max":1174,"o":"m 769 0 l 786 342 l 918 833 l 1174 833 l 1138 625 l 1068 625 l 885 0 l 769 0 m 740 0 l 579 0 l 611 556 l 449 0 l 363 0 l 390 339 l 540 833 l 779 833 l 740 0 m 333 0 l 143 0 l 179 625 l 110 625 l 146 833 l 401 833 l 333 0 m 707 1106 l 903 1029 l 853 892 l 678 942 l 486 892 l 486 1029 l 707 1106 z "},"Ý":{"ha":736,"x_min":110,"x_max":813,"o":"m 515 446 l 474 208 l 543 208 l 507 0 l 160 0 l 196 208 l 265 208 l 297 386 l 207 625 l 110 625 l 146 833 l 368 833 l 515 446 m 547 446 l 679 625 l 776 625 l 813 833 l 590 833 l 467 663 l 547 446 m 328 1026 l 681 1103 l 681 932 l 328 889 l 328 1026 z "},"Ŷ":{"ha":736,"x_min":110,"x_max":813,"o":"m 515 446 l 474 208 l 543 208 l 507 0 l 160 0 l 196 208 l 265 208 l 297 386 l 207 625 l 110 625 l 146 833 l 368 833 l 515 446 m 547 446 l 679 625 l 776 625 l 813 833 l 590 833 l 467 663 l 547 446 m 526 1106 l 722 1029 l 672 892 l 497 942 l 306 892 l 306 1029 l 526 1106 z "},"Ÿ":{"ha":736,"x_min":110,"x_max":813,"o":"m 515 446 l 474 208 l 543 208 l 507 0 l 160 0 l 196 208 l 265 208 l 297 386 l 207 625 l 110 625 l 146 833 l 368 833 l 515 446 m 547 446 l 679 625 l 776 625 l 813 833 l 590 833 l 467 663 l 547 446 m 311 1065 l 485 1065 l 454 892 l 281 892 l 311 1065 m 554 1065 l 728 1065 l 697 892 l 524 892 l 554 1065 z "},"Ź":{"ha":667,"x_min":0,"x_max":743,"o":"m 101 0 l 315 208 l 425 208 l 438 278 l 646 278 l 597 0 l 101 0 m 642 833 l 428 625 l 318 625 l 306 556 l 97 556 l 146 833 l 642 833 m 64 0 l 0 0 l 36 208 l 679 833 l 743 833 l 707 625 l 64 0 m 315 1026 l 668 1103 l 668 932 l 315 889 l 315 1026 z "},"Ž":{"ha":667,"x_min":0,"x_max":743,"o":"m 101 0 l 315 208 l 425 208 l 438 278 l 646 278 l 597 0 l 101 0 m 642 833 l 428 625 l 318 625 l 306 556 l 97 556 l 146 833 l 642 833 m 64 0 l 0 0 l 36 208 l 679 833 l 743 833 l 707 625 l 64 0 m 261 954 l 310 1092 l 485 1042 l 676 1092 l 678 954 l 456 878 l 261 954 z "},"Ż":{"ha":667,"x_min":0,"x_max":743,"o":"m 101 0 l 315 208 l 425 208 l 438 278 l 646 278 l 597 0 l 101 0 m 642 833 l 428 625 l 318 625 l 306 556 l 97 556 l 146 833 l 642 833 m 64 0 l 0 0 l 36 208 l 679 833 l 743 833 l 707 625 l 64 0 m 401 1065 l 575 1065 l 544 892 l 371 892 l 401 1065 z "},"'":{"ha":278,"x_min":124,"x_max":379,"o":"m 171 972 l 379 972 l 342 764 l 249 625 l 124 625 l 189 764 l 133 764 l 171 972 z "},"Ł":{"ha":694,"x_min":0,"x_max":679,"o":"m 365 497 l 590 556 l 603 421 l 339 353 l 278 0 l 0 0 l 36 208 l 106 208 l 121 297 l 42 278 l 29 413 l 147 442 l 179 625 l 110 625 l 146 833 l 493 833 l 457 625 l 388 625 l 365 497 m 306 0 l 342 208 l 453 208 l 471 313 l 679 313 l 625 0 l 306 0 z "},"Ø":{"ha":660,"x_min":-60,"x_max":796,"o":"m 418 208 l 447 375 l 697 713 l 713 694 l 614 139 l 451 0 l 169 0 l 324 208 l 418 208 m 318 625 l 289 458 l 39 121 l 24 139 l 122 694 l 285 833 l 567 833 l 413 625 l 318 625 m 49 -122 l -60 -56 l 689 956 l 796 888 l 49 -122 z "},"Ț":{"ha":764,"x_min":92,"x_max":840,"o":"m 361 833 l 325 625 l 283 625 l 265 521 l 92 521 l 146 833 l 361 833 m 589 625 l 625 833 l 840 833 l 786 521 l 613 521 l 631 625 l 589 625 m 597 833 l 488 208 l 557 208 l 521 0 l 174 0 l 210 208 l 279 208 l 389 833 l 597 833 m 460 -39 l 365 -178 l 192 -178 l 251 -39 l 460 -39 z "},"ț":{"ha":764,"x_min":92,"x_max":840,"o":"m 361 833 l 325 625 l 283 625 l 265 521 l 92 521 l 146 833 l 361 833 m 589 625 l 625 833 l 840 833 l 786 521 l 613 521 l 631 625 l 589 625 m 597 833 l 488 208 l 557 208 l 521 0 l 174 0 l 210 208 l 279 208 l 389 833 l 597 833 m 460 -39 l 365 -178 l 192 -178 l 251 -39 l 460 -39 z "},"Ƶ":{"ha":667,"x_min":0,"x_max":743,"o":"m 601 486 l 682 486 l 658 347 l 460 347 l 601 486 m 142 347 l 61 347 l 85 486 l 283 486 l 142 347 m 101 0 l 315 208 l 425 208 l 438 278 l 646 278 l 597 0 l 101 0 m 642 833 l 428 625 l 318 625 l 306 556 l 97 556 l 146 833 l 642 833 m 64 0 l 0 0 l 36 208 l 679 833 l 743 833 l 707 625 l 64 0 z "},"ƶ":{"ha":667,"x_min":0,"x_max":743,"o":"m 601 486 l 682 486 l 658 347 l 460 347 l 601 486 m 142 347 l 61 347 l 85 486 l 283 486 l 142 347 m 101 0 l 315 208 l 425 208 l 438 278 l 646 278 l 597 0 l 101 0 m 642 833 l 428 625 l 318 625 l 306 556 l 97 556 l 146 833 l 642 833 m 64 0 l 0 0 l 36 208 l 679 833 l 743 833 l 707 625 l 64 0 z "},"á":{"ha":764,"x_min":0,"x_max":754,"o":"m 247 0 l 0 0 l 36 208 l 106 208 l 314 833 l 431 833 l 426 535 l 247 0 m 401 375 l 453 375 l 460 833 l 672 833 l 661 208 l 731 208 l 694 0 l 447 0 l 450 208 l 346 208 l 401 375 m 370 1026 l 755 1103 l 755 932 l 370 889 l 370 1026 z "},"ă":{"ha":764,"x_min":0,"x_max":731,"o":"m 247 0 l 0 0 l 36 208 l 106 208 l 314 833 l 431 833 l 426 535 l 247 0 m 401 375 l 453 375 l 460 833 l 672 833 l 661 208 l 731 208 l 694 0 l 447 0 l 450 208 l 346 208 l 401 375 m 306 954 l 354 1092 l 529 1042 l 721 1092 l 722 954 l 500 878 l 306 954 z "},"â":{"ha":764,"x_min":0,"x_max":751,"o":"m 247 0 l 0 0 l 36 208 l 106 208 l 314 833 l 431 833 l 426 535 l 247 0 m 401 375 l 453 375 l 460 833 l 672 833 l 661 208 l 731 208 l 694 0 l 447 0 l 450 208 l 346 208 l 401 375 m 548 1104 l 753 1028 l 701 891 l 518 941 l 318 891 l 318 1028 l 548 1104 z "},"ä":{"ha":764,"x_min":0,"x_max":742,"o":"m 247 0 l 0 0 l 36 208 l 106 208 l 314 833 l 431 833 l 426 535 l 247 0 m 401 375 l 453 375 l 460 833 l 672 833 l 661 208 l 731 208 l 694 0 l 447 0 l 450 208 l 346 208 l 401 375 m 325 1065 l 499 1065 l 468 892 l 294 892 l 325 1065 m 568 1065 l 742 1065 l 711 892 l 538 892 l 568 1065 z "},"à":{"ha":764,"x_min":0,"x_max":731,"o":"m 247 0 l 0 0 l 36 208 l 106 208 l 314 833 l 431 833 l 426 535 l 247 0 m 401 375 l 453 375 l 460 833 l 672 833 l 661 208 l 731 208 l 694 0 l 447 0 l 450 208 l 346 208 l 401 375 m 651 892 l 315 935 l 375 1106 l 701 1029 l 651 892 z "},"ā":{"ha":764,"x_min":0,"x_max":739,"o":"m 247 0 l 0 0 l 36 208 l 106 208 l 314 833 l 431 833 l 426 535 l 247 0 m 401 375 l 453 375 l 460 833 l 672 833 l 661 208 l 731 208 l 694 0 l 447 0 l 450 208 l 346 208 l 401 375 m 739 1044 l 711 892 l 294 892 l 322 1044 l 739 1044 z "},"ą":{"ha":764,"x_min":0,"x_max":731,"o":"m 447 0 l 450 208 l 346 208 l 401 375 l 453 375 l 460 833 l 672 833 l 661 208 l 731 208 l 694 0 l 447 0 m 621 -28 l 583 -83 l 667 -83 l 647 -194 l 425 -194 l 444 -83 l 482 -28 l 621 -28 m 247 0 l 0 0 l 36 208 l 106 208 l 314 833 l 431 833 l 426 535 l 247 0 z "},"å":{"ha":764,"x_min":0,"x_max":731,"o":"m 247 0 l 0 0 l 36 208 l 106 208 l 314 833 l 431 833 l 426 535 l 247 0 m 401 375 l 453 375 l 460 833 l 672 833 l 661 208 l 731 208 l 694 0 l 447 0 l 450 208 l 346 208 l 401 375 m 432 875 l 374 944 l 399 1083 l 481 1153 l 619 1153 l 676 1083 l 651 944 l 571 875 l 432 875 m 485 979 l 554 979 l 567 1049 l 497 1049 l 485 979 z "},"ã":{"ha":764,"x_min":0,"x_max":740,"o":"m 247 0 l 0 0 l 36 208 l 106 208 l 314 833 l 431 833 l 426 535 l 247 0 m 401 375 l 453 375 l 460 833 l 672 833 l 661 208 l 731 208 l 694 0 l 447 0 l 450 208 l 346 208 l 401 375 m 740 968 l 622 892 l 422 940 l 310 892 l 310 1029 l 426 1106 l 626 1057 l 739 1106 l 740 968 z "},"ć":{"ha":660,"x_min":24,"x_max":736,"o":"m 418 625 l 454 833 l 736 833 l 682 521 l 474 521 l 492 625 l 418 625 m 344 208 l 308 0 l 590 0 l 644 313 l 436 313 l 418 208 l 344 208 m 281 0 l 317 208 l 244 208 l 318 625 l 390 625 l 426 833 l 285 833 l 122 694 l 24 139 l 139 0 l 281 0 m 306 1026 l 658 1103 l 658 932 l 306 889 l 306 1026 z "},"č":{"ha":660,"x_min":24,"x_max":736,"o":"m 418 625 l 454 833 l 736 833 l 682 521 l 474 521 l 492 625 l 418 625 m 344 208 l 308 0 l 590 0 l 644 313 l 436 313 l 418 208 l 344 208 m 281 0 l 317 208 l 244 208 l 318 625 l 390 625 l 426 833 l 285 833 l 122 694 l 24 139 l 139 0 l 281 0 m 257 954 l 306 1092 l 481 1042 l 672 1092 l 674 954 l 451 878 l 257 954 z "},"ĉ":{"ha":660,"x_min":24,"x_max":736,"o":"m 418 625 l 454 833 l 736 833 l 682 521 l 474 521 l 492 625 l 418 625 m 344 208 l 308 0 l 590 0 l 644 313 l 436 313 l 418 208 l 344 208 m 281 0 l 317 208 l 244 208 l 318 625 l 390 625 l 426 833 l 285 833 l 122 694 l 24 139 l 139 0 l 281 0 m 492 1106 l 688 1029 l 638 892 l 463 942 l 271 892 l 271 1029 l 492 1106 z "},"ċ":{"ha":660,"x_min":24,"x_max":736,"o":"m 418 625 l 454 833 l 736 833 l 682 521 l 474 521 l 492 625 l 418 625 m 344 208 l 308 0 l 590 0 l 644 313 l 436 313 l 418 208 l 344 208 m 281 0 l 317 208 l 244 208 l 318 625 l 390 625 l 426 833 l 285 833 l 122 694 l 24 139 l 139 0 l 281 0 m 399 1065 l 572 1065 l 542 892 l 368 892 l 399 1065 z "},"ď":{"ha":729,"x_min":0,"x_max":782,"o":"m 342 208 l 488 208 l 561 625 l 415 625 l 451 833 l 667 833 l 782 694 l 683 139 l 521 0 l 306 0 l 342 208 m 278 0 l 0 0 l 36 208 l 106 208 l 179 625 l 110 625 l 146 833 l 424 833 l 278 0 m 288 954 l 336 1092 l 511 1042 l 703 1092 l 704 954 l 482 878 l 288 954 z "},"đ":{"ha":729,"x_min":0,"x_max":782,"o":"m 342 208 l 488 208 l 561 625 l 415 625 l 451 833 l 667 833 l 782 694 l 683 139 l 521 0 l 306 0 l 342 208 m 336 333 l 278 0 l 0 0 l 36 208 l 106 208 l 128 333 l 58 333 l 88 500 l 157 500 l 179 625 l 110 625 l 146 833 l 424 833 l 365 500 l 435 500 l 406 333 l 336 333 z "},"é":{"ha":694,"x_min":0,"x_max":771,"o":"m 390 486 l 501 486 l 478 347 l 367 347 l 390 486 m 278 0 l 0 0 l 36 208 l 106 208 l 179 625 l 110 625 l 146 833 l 424 833 l 278 0 m 342 208 l 453 208 l 471 313 l 679 313 l 625 0 l 306 0 l 342 208 m 451 833 l 771 833 l 717 521 l 508 521 l 526 625 l 415 625 l 451 833 m 319 1026 l 672 1103 l 672 932 l 319 889 l 319 1026 z "},"ě":{"ha":694,"x_min":0,"x_max":771,"o":"m 390 486 l 501 486 l 478 347 l 367 347 l 390 486 m 278 0 l 0 0 l 36 208 l 106 208 l 179 625 l 110 625 l 146 833 l 424 833 l 278 0 m 342 208 l 453 208 l 471 313 l 679 313 l 625 0 l 306 0 l 342 208 m 451 833 l 771 833 l 717 521 l 508 521 l 526 625 l 415 625 l 451 833 m 275 954 l 324 1092 l 499 1042 l 690 1092 l 692 954 l 469 878 l 275 954 z "},"ê":{"ha":694,"x_min":0,"x_max":771,"o":"m 390 486 l 501 486 l 478 347 l 367 347 l 390 486 m 278 0 l 0 0 l 36 208 l 106 208 l 179 625 l 110 625 l 146 833 l 424 833 l 278 0 m 342 208 l 453 208 l 471 313 l 679 313 l 625 0 l 306 0 l 342 208 m 451 833 l 771 833 l 717 521 l 508 521 l 526 625 l 415 625 l 451 833 m 508 1106 l 704 1029 l 654 892 l 479 942 l 288 892 l 288 1029 l 508 1106 z "},"ë":{"ha":694,"x_min":0,"x_max":771,"o":"m 390 486 l 501 486 l 478 347 l 367 347 l 390 486 m 278 0 l 0 0 l 36 208 l 106 208 l 179 625 l 110 625 l 146 833 l 424 833 l 278 0 m 342 208 l 453 208 l 471 313 l 679 313 l 625 0 l 306 0 l 342 208 m 451 833 l 771 833 l 717 521 l 508 521 l 526 625 l 415 625 l 451 833 m 293 1065 l 467 1065 l 436 892 l 263 892 l 293 1065 m 536 1065 l 710 1065 l 679 892 l 506 892 l 536 1065 z "},"ė":{"ha":694,"x_min":0,"x_max":771,"o":"m 390 486 l 501 486 l 478 347 l 367 347 l 390 486 m 278 0 l 0 0 l 36 208 l 106 208 l 179 625 l 110 625 l 146 833 l 424 833 l 278 0 m 342 208 l 453 208 l 471 313 l 679 313 l 625 0 l 306 0 l 342 208 m 451 833 l 771 833 l 717 521 l 508 521 l 526 625 l 415 625 l 451 833 m 415 1065 l 589 1065 l 558 892 l 385 892 l 415 1065 z "},"è":{"ha":694,"x_min":0,"x_max":771,"o":"m 390 486 l 501 486 l 478 347 l 367 347 l 390 486 m 278 0 l 0 0 l 36 208 l 106 208 l 179 625 l 110 625 l 146 833 l 424 833 l 278 0 m 342 208 l 453 208 l 471 313 l 679 313 l 625 0 l 306 0 l 342 208 m 451 833 l 771 833 l 717 521 l 508 521 l 526 625 l 415 625 l 451 833 m 621 892 l 285 935 l 344 1106 l 671 1029 l 621 892 z "},"ē":{"ha":694,"x_min":0,"x_max":771,"o":"m 390 486 l 501 486 l 478 347 l 367 347 l 390 486 m 278 0 l 0 0 l 36 208 l 106 208 l 179 625 l 110 625 l 146 833 l 424 833 l 278 0 m 342 208 l 453 208 l 471 313 l 679 313 l 625 0 l 306 0 l 342 208 m 451 833 l 771 833 l 717 521 l 508 521 l 526 625 l 415 625 l 451 833 m 707 1044 l 679 892 l 263 892 l 290 1044 l 707 1044 z "},"ę":{"ha":694,"x_min":0,"x_max":771,"o":"m 606 -28 l 568 -83 l 651 -83 l 632 -194 l 410 -194 l 429 -83 l 467 -28 l 606 -28 m 390 486 l 501 486 l 478 347 l 367 347 l 390 486 m 278 0 l 0 0 l 36 208 l 106 208 l 179 625 l 110 625 l 146 833 l 424 833 l 278 0 m 342 208 l 453 208 l 471 313 l 679 313 l 625 0 l 306 0 l 342 208 m 451 833 l 771 833 l 717 521 l 508 521 l 526 625 l 415 625 l 451 833 z "},"ğ":{"ha":660,"x_min":24,"x_max":736,"o":"m 344 208 l 418 208 l 436 313 l 332 313 l 360 465 l 672 465 l 590 0 l 308 0 l 344 208 m 454 833 l 736 833 l 682 521 l 474 521 l 492 625 l 418 625 l 454 833 m 281 0 l 317 208 l 244 208 l 318 625 l 390 625 l 426 833 l 285 833 l 122 694 l 24 139 l 139 0 l 281 0 m 257 954 l 306 1092 l 481 1042 l 672 1092 l 674 954 l 451 878 l 257 954 z "},"ĝ":{"ha":660,"x_min":24,"x_max":736,"o":"m 344 208 l 418 208 l 436 313 l 332 313 l 360 465 l 672 465 l 590 0 l 308 0 l 344 208 m 454 833 l 736 833 l 682 521 l 474 521 l 492 625 l 418 625 l 454 833 m 281 0 l 317 208 l 244 208 l 318 625 l 390 625 l 426 833 l 285 833 l 122 694 l 24 139 l 139 0 l 281 0 m 492 1106 l 688 1029 l 638 892 l 463 942 l 271 892 l 271 1029 l 492 1106 z "},"ģ":{"ha":660,"x_min":24,"x_max":736,"o":"m 344 208 l 418 208 l 436 313 l 332 313 l 360 465 l 672 465 l 590 0 l 308 0 l 344 208 m 454 833 l 736 833 l 682 521 l 474 521 l 492 625 l 418 625 l 454 833 m 281 0 l 317 208 l 244 208 l 318 625 l 390 625 l 426 833 l 285 833 l 122 694 l 24 139 l 139 0 l 281 0 m 408 -39 l 314 -178 l 140 -178 l 200 -39 l 408 -39 z "},"ġ":{"ha":660,"x_min":24,"x_max":736,"o":"m 344 208 l 418 208 l 436 313 l 332 313 l 360 465 l 672 465 l 590 0 l 308 0 l 344 208 m 454 833 l 736 833 l 682 521 l 474 521 l 492 625 l 418 625 l 454 833 m 281 0 l 317 208 l 244 208 l 318 625 l 390 625 l 426 833 l 285 833 l 122 694 l 24 139 l 139 0 l 281 0 m 399 1065 l 572 1065 l 542 892 l 368 892 l 399 1065 z "},"ħ":{"ha":764,"x_min":0,"x_max":840,"o":"m 519 590 l 563 833 l 840 833 l 804 625 l 735 625 l 728 590 l 797 590 l 786 521 l 717 521 l 661 208 l 731 208 l 694 0 l 417 0 l 471 313 l 360 313 l 390 486 l 501 486 l 508 521 l 397 521 l 408 590 l 519 590 m 278 0 l 0 0 l 36 208 l 106 208 l 161 521 l 92 521 l 103 590 l 172 590 l 179 625 l 110 625 l 146 833 l 424 833 l 278 0 z "},"ĥ":{"ha":764,"x_min":0,"x_max":840,"o":"m 397 521 l 508 521 l 563 833 l 840 833 l 804 625 l 735 625 l 661 208 l 731 208 l 694 0 l 417 0 l 471 313 l 360 313 l 397 521 m 278 0 l 0 0 l 36 208 l 106 208 l 179 625 l 110 625 l 146 833 l 424 833 l 278 0 m 540 1106 l 736 1029 l 686 892 l 511 942 l 319 892 l 319 1029 l 540 1106 z "},"í":{"ha":417,"x_min":0,"x_max":536,"o":"m 493 833 l 457 625 l 388 625 l 314 208 l 383 208 l 347 0 l 0 0 l 36 208 l 106 208 l 179 625 l 110 625 l 146 833 l 493 833 m 183 1026 l 536 1103 l 536 932 l 183 889 l 183 1026 z "},"î":{"ha":417,"x_min":0,"x_max":567,"o":"m 493 833 l 457 625 l 388 625 l 314 208 l 383 208 l 347 0 l 0 0 l 36 208 l 106 208 l 179 625 l 110 625 l 146 833 l 493 833 m 371 1106 l 567 1029 l 517 892 l 342 942 l 150 892 l 150 1029 l 371 1106 z "},"ï":{"ha":417,"x_min":0,"x_max":572,"o":"m 493 833 l 457 625 l 388 625 l 314 208 l 383 208 l 347 0 l 0 0 l 36 208 l 106 208 l 179 625 l 110 625 l 146 833 l 493 833 m 156 1065 l 329 1065 l 299 892 l 125 892 l 156 1065 m 399 1065 l 572 1065 l 542 892 l 368 892 l 399 1065 z "},"ì":{"ha":417,"x_min":0,"x_max":532,"o":"m 493 833 l 457 625 l 388 625 l 314 208 l 383 208 l 347 0 l 0 0 l 36 208 l 106 208 l 179 625 l 110 625 l 146 833 l 493 833 m 482 892 l 146 935 l 206 1106 l 532 1029 l 482 892 z "},"ī":{"ha":417,"x_min":0,"x_max":569,"o":"m 493 833 l 457 625 l 388 625 l 314 208 l 383 208 l 347 0 l 0 0 l 36 208 l 106 208 l 179 625 l 110 625 l 146 833 l 493 833 m 569 1044 l 542 892 l 125 892 l 153 1044 l 569 1044 z "},"į":{"ha":417,"x_min":0,"x_max":493,"o":"m 347 0 l 0 0 l 36 208 l 106 208 l 179 625 l 110 625 l 146 833 l 493 833 l 457 625 l 388 625 l 314 208 l 383 208 l 347 0 m 328 -28 l 290 -83 l 374 -83 l 354 -194 l 132 -194 l 151 -83 l 189 -28 l 328 -28 z "},"ı":{"ha":417,"x_min":0,"x_max":493,"o":"m 493 833 l 457 625 l 388 625 l 314 208 l 383 208 l 347 0 l 0 0 l 36 208 l 106 208 l 179 625 l 110 625 l 146 833 l 493 833 z "},"ĵ":{"ha":694,"x_min":24,"x_max":840,"o":"m 292 0 l 328 208 l 383 208 l 457 625 l 388 625 l 424 833 l 771 833 l 735 625 l 665 625 l 579 139 l 417 0 l 292 0 m 300 208 l 264 0 l 139 0 l 24 139 l 54 313 l 263 313 l 244 208 l 300 208 m 644 1106 l 840 1029 l 790 892 l 615 942 l 424 892 l 424 1029 l 644 1106 z "},"ķ":{"ha":708,"x_min":0,"x_max":785,"o":"m 278 0 l 0 0 l 36 208 l 106 208 l 179 625 l 110 625 l 146 833 l 424 833 l 278 0 m 417 633 l 340 200 l 417 0 l 639 0 l 675 208 l 578 208 l 497 417 l 651 625 l 749 625 l 785 833 l 563 833 l 417 633 m 432 -39 l 338 -178 l 164 -178 l 224 -39 l 432 -39 z "},"ĺ":{"ha":694,"x_min":0,"x_max":679,"o":"m 306 0 l 342 208 l 453 208 l 471 313 l 679 313 l 625 0 l 306 0 m 278 0 l 0 0 l 36 208 l 106 208 l 179 625 l 110 625 l 146 833 l 493 833 l 457 625 l 388 625 l 278 0 m 183 1026 l 536 1103 l 536 932 l 183 889 l 183 1026 z "},"ľ":{"ha":694,"x_min":0,"x_max":783,"o":"m 575 903 l 783 903 l 747 694 l 653 556 l 528 556 l 594 694 l 539 694 l 575 903 m 306 0 l 342 208 l 453 208 l 471 313 l 679 313 l 625 0 l 306 0 m 278 0 l 0 0 l 36 208 l 106 208 l 179 625 l 110 625 l 146 833 l 493 833 l 457 625 l 388 625 l 278 0 z "},"ļ":{"ha":694,"x_min":0,"x_max":679,"o":"m 306 0 l 342 208 l 453 208 l 471 313 l 679 313 l 625 0 l 306 0 m 278 0 l 0 0 l 36 208 l 106 208 l 179 625 l 110 625 l 146 833 l 493 833 l 457 625 l 388 625 l 278 0 m 425 -39 l 331 -178 l 157 -178 l 217 -39 l 425 -39 z "},"ł":{"ha":694,"x_min":0,"x_max":679,"o":"m 365 497 l 590 556 l 603 421 l 339 353 l 278 0 l 0 0 l 36 208 l 106 208 l 121 297 l 42 278 l 29 413 l 147 442 l 179 625 l 110 625 l 146 833 l 493 833 l 457 625 l 388 625 l 365 497 m 306 0 l 342 208 l 453 208 l 471 313 l 679 313 l 625 0 l 306 0 z "},"ń":{"ha":764,"x_min":0,"x_max":840,"o":"m 382 833 l 592 208 l 731 208 l 694 0 l 458 0 l 249 625 l 110 625 l 146 833 l 382 833 m 511 540 l 563 833 l 840 833 l 804 625 l 735 625 l 665 236 l 613 236 l 511 540 m 174 597 l 106 208 l 36 208 l 0 0 l 278 0 l 329 293 l 226 597 l 174 597 m 335 1026 l 688 1103 l 688 932 l 335 889 l 335 1026 z "},"ň":{"ha":764,"x_min":0,"x_max":840,"o":"m 382 833 l 592 208 l 731 208 l 694 0 l 458 0 l 249 625 l 110 625 l 146 833 l 382 833 m 511 540 l 563 833 l 840 833 l 804 625 l 735 625 l 665 236 l 613 236 l 511 540 m 174 597 l 106 208 l 36 208 l 0 0 l 278 0 l 329 293 l 226 597 l 174 597 m 306 954 l 354 1092 l 529 1042 l 721 1092 l 722 954 l 500 878 l 306 954 z "},"ņ":{"ha":764,"x_min":0,"x_max":840,"o":"m 382 833 l 592 208 l 731 208 l 694 0 l 458 0 l 249 625 l 110 625 l 146 833 l 382 833 m 511 540 l 563 833 l 840 833 l 804 625 l 735 625 l 665 236 l 613 236 l 511 540 m 174 597 l 106 208 l 36 208 l 0 0 l 278 0 l 329 293 l 226 597 l 174 597 m 460 -39 l 365 -178 l 192 -178 l 251 -39 l 460 -39 z "},"ñ":{"ha":764,"x_min":0,"x_max":840,"o":"m 382 833 l 592 208 l 731 208 l 694 0 l 458 0 l 249 625 l 110 625 l 146 833 l 382 833 m 511 540 l 563 833 l 840 833 l 804 625 l 735 625 l 665 236 l 613 236 l 511 540 m 174 597 l 106 208 l 36 208 l 0 0 l 278 0 l 329 293 l 226 597 l 174 597 m 740 968 l 622 892 l 422 940 l 310 892 l 310 1029 l 426 1106 l 626 1057 l 739 1106 l 740 968 z "},"ó":{"ha":660,"x_min":24,"x_max":713,"o":"m 597 833 l 713 694 l 614 139 l 451 0 l 308 0 l 344 208 l 418 208 l 492 625 l 418 625 l 454 833 l 597 833 m 139 0 l 24 139 l 122 694 l 285 833 l 426 833 l 390 625 l 318 625 l 244 208 l 317 208 l 281 0 l 139 0 m 306 1026 l 658 1103 l 658 932 l 306 889 l 306 1026 z "},"ô":{"ha":660,"x_min":24,"x_max":713,"o":"m 597 833 l 713 694 l 614 139 l 451 0 l 308 0 l 344 208 l 418 208 l 492 625 l 418 625 l 454 833 l 597 833 m 139 0 l 24 139 l 122 694 l 285 833 l 426 833 l 390 625 l 318 625 l 244 208 l 317 208 l 281 0 l 139 0 m 492 1106 l 688 1029 l 638 892 l 463 942 l 271 892 l 271 1029 l 492 1106 z "},"ö":{"ha":660,"x_min":24,"x_max":713,"o":"m 597 833 l 713 694 l 614 139 l 451 0 l 308 0 l 344 208 l 418 208 l 492 625 l 418 625 l 454 833 l 597 833 m 139 0 l 24 139 l 122 694 l 285 833 l 426 833 l 390 625 l 318 625 l 244 208 l 317 208 l 281 0 l 139 0 m 276 1065 l 450 1065 l 419 892 l 246 892 l 276 1065 m 519 1065 l 693 1065 l 663 892 l 489 892 l 519 1065 z "},"ò":{"ha":660,"x_min":24,"x_max":713,"o":"m 597 833 l 713 694 l 614 139 l 451 0 l 308 0 l 344 208 l 418 208 l 492 625 l 418 625 l 454 833 l 597 833 m 139 0 l 24 139 l 122 694 l 285 833 l 426 833 l 390 625 l 318 625 l 244 208 l 317 208 l 281 0 l 139 0 m 603 892 l 267 935 l 326 1106 l 653 1029 l 603 892 z "},"ő":{"ha":660,"x_min":24,"x_max":721,"o":"m 597 833 l 713 694 l 614 139 l 451 0 l 308 0 l 344 208 l 418 208 l 492 625 l 418 625 l 454 833 l 597 833 m 139 0 l 24 139 l 122 694 l 285 833 l 426 833 l 390 625 l 318 625 l 244 208 l 317 208 l 281 0 l 139 0 m 367 1065 l 519 1065 l 426 892 l 274 892 l 367 1065 m 568 1065 l 721 1065 l 628 892 l 475 892 l 568 1065 z "},"ø":{"ha":660,"x_min":-60,"x_max":796,"o":"m 418 208 l 447 375 l 697 713 l 713 694 l 614 139 l 451 0 l 169 0 l 324 208 l 418 208 m 318 625 l 289 458 l 39 121 l 24 139 l 122 694 l 285 833 l 567 833 l 413 625 l 318 625 m 49 -122 l -60 -56 l 689 956 l 796 888 l 49 -122 z "},"õ":{"ha":660,"x_min":24,"x_max":713,"o":"m 597 833 l 713 694 l 614 139 l 451 0 l 308 0 l 344 208 l 418 208 l 492 625 l 418 625 l 454 833 l 597 833 m 139 0 l 24 139 l 122 694 l 285 833 l 426 833 l 390 625 l 318 625 l 244 208 l 317 208 l 281 0 l 139 0 m 689 968 l 571 892 l 371 940 l 258 892 l 258 1029 l 375 1106 l 575 1057 l 688 1106 l 689 968 z "},"ŕ":{"ha":742,"x_min":0,"x_max":747,"o":"m 390 486 l 501 486 l 526 625 l 415 625 l 451 833 l 632 833 l 747 694 l 704 451 l 622 382 l 639 208 l 708 208 l 672 0 l 444 0 l 417 278 l 354 278 l 390 486 m 278 0 l 0 0 l 36 208 l 106 208 l 179 625 l 110 625 l 146 833 l 424 833 l 278 0 m 329 1026 l 682 1103 l 682 932 l 329 889 l 329 1026 z "},"ř":{"ha":742,"x_min":0,"x_max":747,"o":"m 390 486 l 501 486 l 526 625 l 415 625 l 451 833 l 632 833 l 747 694 l 704 451 l 622 382 l 639 208 l 708 208 l 672 0 l 444 0 l 417 278 l 354 278 l 390 486 m 278 0 l 0 0 l 36 208 l 106 208 l 179 625 l 110 625 l 146 833 l 424 833 l 278 0 m 294 954 l 343 1092 l 518 1042 l 710 1092 l 711 954 l 489 878 l 294 954 z "},"ŗ":{"ha":742,"x_min":0,"x_max":747,"o":"m 390 486 l 501 486 l 526 625 l 415 625 l 451 833 l 632 833 l 747 694 l 704 451 l 622 382 l 639 208 l 708 208 l 672 0 l 444 0 l 417 278 l 354 278 l 390 486 m 278 0 l 0 0 l 36 208 l 106 208 l 179 625 l 110 625 l 146 833 l 424 833 l 278 0 m 449 -39 l 354 -178 l 181 -178 l 240 -39 l 449 -39 z "},"ś":{"ha":639,"x_min":0,"x_max":715,"o":"m 444 833 l 715 833 l 667 556 l 458 556 l 471 625 l 408 625 l 444 833 m 271 0 l 0 0 l 49 278 l 257 278 l 244 208 l 307 208 l 271 0 m 335 208 l 397 208 l 411 285 l 69 396 l 122 694 l 285 833 l 417 833 l 381 625 l 318 625 l 304 549 l 646 438 l 593 139 l 431 0 l 299 0 l 335 208 m 310 1026 l 663 1103 l 663 932 l 310 889 l 310 1026 z "},"š":{"ha":639,"x_min":0,"x_max":715,"o":"m 444 833 l 715 833 l 667 556 l 458 556 l 471 625 l 408 625 l 444 833 m 271 0 l 0 0 l 49 278 l 257 278 l 244 208 l 307 208 l 271 0 m 335 208 l 397 208 l 411 285 l 69 396 l 122 694 l 285 833 l 417 833 l 381 625 l 318 625 l 304 549 l 646 438 l 593 139 l 431 0 l 299 0 l 335 208 m 247 954 l 296 1092 l 471 1042 l 663 1092 l 664 954 l 442 878 l 247 954 z "},"ş":{"ha":639,"x_min":0,"x_max":715,"o":"m 444 833 l 715 833 l 667 556 l 458 556 l 471 625 l 408 625 l 444 833 m 271 0 l 0 0 l 49 278 l 257 278 l 244 208 l 307 208 l 271 0 m 335 208 l 397 208 l 411 285 l 69 396 l 122 694 l 285 833 l 417 833 l 381 625 l 318 625 l 304 549 l 646 438 l 593 139 l 431 0 l 299 0 l 335 208 m 399 -39 l 304 -178 l 131 -178 l 190 -39 l 399 -39 z "},"ŝ":{"ha":639,"x_min":0,"x_max":715,"o":"m 444 833 l 715 833 l 667 556 l 458 556 l 471 625 l 408 625 l 444 833 m 271 0 l 0 0 l 49 278 l 257 278 l 244 208 l 307 208 l 271 0 m 335 208 l 397 208 l 411 285 l 69 396 l 122 694 l 285 833 l 417 833 l 381 625 l 318 625 l 304 549 l 646 438 l 593 139 l 431 0 l 299 0 l 335 208 m 482 1106 l 678 1029 l 628 892 l 453 942 l 261 892 l 261 1029 l 482 1106 z "},"ș":{"ha":639,"x_min":0,"x_max":715,"o":"m 444 833 l 715 833 l 667 556 l 458 556 l 471 625 l 408 625 l 444 833 m 271 0 l 0 0 l 49 278 l 257 278 l 244 208 l 307 208 l 271 0 m 335 208 l 397 208 l 411 285 l 69 396 l 122 694 l 285 833 l 417 833 l 381 625 l 318 625 l 304 549 l 646 438 l 593 139 l 431 0 l 299 0 l 335 208 m 399 -39 l 304 -178 l 131 -178 l 190 -39 l 399 -39 z "},"ť":{"ha":764,"x_min":92,"x_max":840,"o":"m 361 833 l 325 625 l 283 625 l 265 521 l 92 521 l 146 833 l 361 833 m 589 625 l 625 833 l 840 833 l 786 521 l 613 521 l 631 625 l 589 625 m 597 833 l 488 208 l 557 208 l 521 0 l 174 0 l 210 208 l 279 208 l 389 833 l 597 833 m 306 954 l 354 1092 l 529 1042 l 721 1092 l 722 954 l 500 878 l 306 954 z "},"ţ":{"ha":764,"x_min":92,"x_max":840,"o":"m 361 833 l 325 625 l 283 625 l 265 521 l 92 521 l 146 833 l 361 833 m 589 625 l 625 833 l 840 833 l 786 521 l 613 521 l 631 625 l 589 625 m 597 833 l 488 208 l 557 208 l 521 0 l 174 0 l 210 208 l 279 208 l 389 833 l 597 833 m 460 -39 l 365 -178 l 192 -178 l 251 -39 l 460 -39 z "},"ú":{"ha":799,"x_min":93,"x_max":875,"o":"m 378 0 l 414 208 l 488 208 l 597 833 l 875 833 l 839 625 l 769 625 l 683 139 l 521 0 l 378 0 m 350 0 l 208 0 l 93 139 l 179 625 l 110 625 l 146 833 l 424 833 l 314 208 l 386 208 l 350 0 m 342 1026 l 694 1103 l 694 932 l 342 889 l 342 1026 z "},"ŭ":{"ha":799,"x_min":93,"x_max":875,"o":"m 378 0 l 414 208 l 488 208 l 597 833 l 875 833 l 839 625 l 769 625 l 683 139 l 521 0 l 378 0 m 350 0 l 208 0 l 93 139 l 179 625 l 110 625 l 146 833 l 424 833 l 314 208 l 386 208 l 350 0 m 322 954 l 371 1092 l 546 1042 l 738 1092 l 739 954 l 517 878 l 322 954 z "},"û":{"ha":799,"x_min":93,"x_max":875,"o":"m 378 0 l 414 208 l 488 208 l 597 833 l 875 833 l 839 625 l 769 625 l 683 139 l 521 0 l 378 0 m 350 0 l 208 0 l 93 139 l 179 625 l 110 625 l 146 833 l 424 833 l 314 208 l 386 208 l 350 0 m 557 1106 l 753 1029 l 703 892 l 528 942 l 336 892 l 336 1029 l 557 1106 z "},"ü":{"ha":799,"x_min":93,"x_max":875,"o":"m 378 0 l 414 208 l 488 208 l 597 833 l 875 833 l 839 625 l 769 625 l 683 139 l 521 0 l 378 0 m 350 0 l 208 0 l 93 139 l 179 625 l 110 625 l 146 833 l 424 833 l 314 208 l 386 208 l 350 0 m 342 1065 l 515 1065 l 485 892 l 311 892 l 342 1065 m 585 1065 l 758 1065 l 728 892 l 554 892 l 585 1065 z "},"ű":{"ha":799,"x_min":93,"x_max":875,"o":"m 378 0 l 414 208 l 488 208 l 597 833 l 875 833 l 839 625 l 769 625 l 683 139 l 521 0 l 378 0 m 350 0 l 208 0 l 93 139 l 179 625 l 110 625 l 146 833 l 424 833 l 314 208 l 386 208 l 350 0 m 436 1065 l 589 1065 l 496 892 l 343 892 l 436 1065 m 638 1065 l 790 1065 l 697 892 l 544 892 l 638 1065 z "},"ù":{"ha":799,"x_min":93,"x_max":875,"o":"m 378 0 l 414 208 l 488 208 l 597 833 l 875 833 l 839 625 l 769 625 l 683 139 l 521 0 l 378 0 m 350 0 l 208 0 l 93 139 l 179 625 l 110 625 l 146 833 l 424 833 l 314 208 l 386 208 l 350 0 m 699 892 l 363 935 l 422 1106 l 749 1029 l 699 892 z "},"ū":{"ha":799,"x_min":93,"x_max":875,"o":"m 378 0 l 414 208 l 488 208 l 597 833 l 875 833 l 839 625 l 769 625 l 683 139 l 521 0 l 378 0 m 350 0 l 208 0 l 93 139 l 179 625 l 110 625 l 146 833 l 424 833 l 314 208 l 386 208 l 350 0 m 757 1043 l 729 892 l 313 892 l 340 1043 l 757 1043 z "},"ų":{"ha":799,"x_min":93,"x_max":875,"o":"m 501 -28 l 464 -83 l 547 -83 l 528 -194 l 306 -194 l 325 -83 l 363 -28 l 501 -28 m 378 0 l 414 208 l 488 208 l 597 833 l 875 833 l 839 625 l 769 625 l 683 139 l 521 0 l 378 0 m 350 0 l 208 0 l 93 139 l 179 625 l 110 625 l 146 833 l 424 833 l 314 208 l 386 208 l 350 0 z "},"ů":{"ha":799,"x_min":93,"x_max":875,"o":"m 378 0 l 414 208 l 488 208 l 597 833 l 875 833 l 839 625 l 769 625 l 683 139 l 521 0 l 378 0 m 350 0 l 208 0 l 93 139 l 179 625 l 110 625 l 146 833 l 424 833 l 314 208 l 386 208 l 350 0 m 449 875 l 390 944 l 415 1083 l 497 1153 l 636 1153 l 693 1083 l 668 944 l 588 875 l 449 875 m 501 979 l 571 979 l 583 1049 l 514 1049 l 501 979 z "},"ŵ":{"ha":1097,"x_min":110,"x_max":1174,"o":"m 769 0 l 786 342 l 918 833 l 1174 833 l 1138 625 l 1068 625 l 885 0 l 769 0 m 740 0 l 579 0 l 611 556 l 449 0 l 363 0 l 390 339 l 540 833 l 779 833 l 740 0 m 333 0 l 143 0 l 179 625 l 110 625 l 146 833 l 401 833 l 333 0 m 707 1106 l 903 1029 l 853 892 l 678 942 l 486 892 l 486 1029 l 707 1106 z "},"ý":{"ha":736,"x_min":110,"x_max":813,"o":"m 515 446 l 474 208 l 543 208 l 507 0 l 160 0 l 196 208 l 265 208 l 297 386 l 207 625 l 110 625 l 146 833 l 368 833 l 515 446 m 547 446 l 679 625 l 776 625 l 813 833 l 590 833 l 467 663 l 547 446 m 328 1026 l 681 1103 l 681 932 l 328 889 l 328 1026 z "},"ŷ":{"ha":736,"x_min":110,"x_max":813,"o":"m 515 446 l 474 208 l 543 208 l 507 0 l 160 0 l 196 208 l 265 208 l 297 386 l 207 625 l 110 625 l 146 833 l 368 833 l 515 446 m 547 446 l 679 625 l 776 625 l 813 833 l 590 833 l 467 663 l 547 446 m 526 1106 l 722 1029 l 672 892 l 497 942 l 306 892 l 306 1029 l 526 1106 z "},"ÿ":{"ha":736,"x_min":110,"x_max":813,"o":"m 515 446 l 474 208 l 543 208 l 507 0 l 160 0 l 196 208 l 265 208 l 297 386 l 207 625 l 110 625 l 146 833 l 368 833 l 515 446 m 547 446 l 679 625 l 776 625 l 813 833 l 590 833 l 467 663 l 547 446 m 311 1065 l 485 1065 l 454 892 l 281 892 l 311 1065 m 554 1065 l 728 1065 l 697 892 l 524 892 l 554 1065 z "},"ź":{"ha":667,"x_min":0,"x_max":743,"o":"m 101 0 l 315 208 l 425 208 l 438 278 l 646 278 l 597 0 l 101 0 m 642 833 l 428 625 l 318 625 l 306 556 l 97 556 l 146 833 l 642 833 m 64 0 l 0 0 l 36 208 l 679 833 l 743 833 l 707 625 l 64 0 m 315 1026 l 668 1103 l 668 932 l 315 889 l 315 1026 z "},"ž":{"ha":667,"x_min":0,"x_max":743,"o":"m 101 0 l 315 208 l 425 208 l 438 278 l 646 278 l 597 0 l 101 0 m 642 833 l 428 625 l 318 625 l 306 556 l 97 556 l 146 833 l 642 833 m 64 0 l 0 0 l 36 208 l 679 833 l 743 833 l 707 625 l 64 0 m 261 954 l 310 1092 l 485 1042 l 676 1092 l 678 954 l 456 878 l 261 954 z "},"ż":{"ha":667,"x_min":0,"x_max":743,"o":"m 101 0 l 315 208 l 425 208 l 438 278 l 646 278 l 597 0 l 101 0 m 642 833 l 428 625 l 318 625 l 306 556 l 97 556 l 146 833 l 642 833 m 64 0 l 0 0 l 36 208 l 679 833 l 743 833 l 707 625 l 64 0 m 401 1065 l 575 1065 l 544 892 l 371 892 l 401 1065 z "},"Ч":{"ha":764,"x_min":110,"x_max":840,"o":"m 563 833 l 840 833 l 804 625 l 735 625 l 661 208 l 731 208 l 694 0 l 347 0 l 383 208 l 453 208 l 563 833 m 443 313 l 263 313 l 149 451 l 179 625 l 110 625 l 146 833 l 424 833 l 369 521 l 481 521 l 443 313 z "},"Ð":{"ha":729,"x_min":0,"x_max":782,"o":"m 342 208 l 488 208 l 561 625 l 415 625 l 451 833 l 667 833 l 782 694 l 683 139 l 521 0 l 306 0 l 342 208 m 336 333 l 278 0 l 0 0 l 36 208 l 106 208 l 128 333 l 58 333 l 88 500 l 157 500 l 179 625 l 110 625 l 146 833 l 424 833 l 365 500 l 435 500 l 406 333 l 336 333 z "},"Þ":{"ha":694,"x_min":0,"x_max":722,"o":"m 390 486 l 428 694 l 608 694 l 722 556 l 674 278 l 510 139 l 329 139 l 367 347 l 478 347 l 501 486 l 390 486 m 278 0 l 0 0 l 36 208 l 106 208 l 179 625 l 110 625 l 146 833 l 424 833 l 278 0 z "},"\"":{"ha":556,"x_min":124,"x_max":657,"o":"m 449 972 l 657 972 l 619 764 l 526 625 l 401 625 l 467 764 l 411 764 l 449 972 m 171 972 l 379 972 l 342 764 l 249 625 l 124 625 l 189 764 l 133 764 l 171 972 z "},"“":{"ha":556,"x_min":110,"x_max":643,"o":"m 318 625 l 110 625 l 146 833 l 240 972 l 365 972 l 299 833 l 354 833 l 318 625 m 596 625 l 388 625 l 424 833 l 518 972 l 643 972 l 576 833 l 632 833 l 596 625 z "},"”":{"ha":556,"x_min":124,"x_max":657,"o":"m 449 972 l 657 972 l 619 764 l 526 625 l 401 625 l 467 764 l 411 764 l 449 972 m 171 972 l 379 972 l 342 764 l 249 625 l 124 625 l 189 764 l 133 764 l 171 972 z "},"’":{"ha":278,"x_min":124,"x_max":379,"o":"m 171 972 l 379 972 l 342 764 l 249 625 l 124 625 l 189 764 l 133 764 l 171 972 z "},"‘":{"ha":278,"x_min":110,"x_max":365,"o":"m 318 625 l 110 625 l 146 833 l 240 972 l 365 972 l 299 833 l 354 833 l 318 625 z "},",":{"ha":278,"x_min":-10,"x_max":244,"o":"m 36 208 l 244 208 l 208 0 l 114 -139 l -10 -139 l 56 0 l 0 0 l 36 208 z "},".":{"ha":278,"x_min":0,"x_max":244,"o":"m 36 208 l 244 208 l 208 0 l 0 0 l 36 208 z "},";":{"ha":278,"x_min":-10,"x_max":318,"o":"m 36 208 l 244 208 l 208 0 l 114 -139 l -10 -139 l 56 0 l 0 0 l 36 208 m 110 625 l 318 625 l 281 417 l 72 417 l 110 625 z "},":":{"ha":278,"x_min":0,"x_max":318,"o":"m 36 208 l 244 208 l 208 0 l 0 0 l 36 208 m 110 625 l 318 625 l 281 417 l 72 417 l 110 625 z "},"$":{"ha":639,"x_min":0,"x_max":715,"o":"m 593 139 l 431 0 l 319 0 l 307 -69 l 238 -69 l 250 0 l 0 0 l 49 278 l 257 278 l 244 208 l 286 208 l 306 318 l 69 396 l 122 694 l 285 833 l 396 833 l 408 903 l 478 903 l 465 833 l 715 833 l 667 556 l 458 556 l 471 625 l 429 625 l 410 514 l 646 438 l 593 139 m 304 549 l 344 536 l 360 625 l 318 625 l 304 549 m 371 297 l 356 208 l 397 208 l 411 285 l 371 297 z "},"[":{"ha":375,"x_min":-36,"x_max":489,"o":"m 489 1042 l 451 833 l 354 833 l 208 0 l 306 0 l 268 -208 l -36 -208 l 183 1042 l 489 1042 z "},"]":{"ha":375,"x_min":-36,"x_max":489,"o":"m 489 1042 l 268 -208 l -36 -208 l 0 0 l 97 0 l 243 833 l 146 833 l 183 1042 l 489 1042 z "},"|":{"ha":278,"x_min":-36,"x_max":392,"o":"m 392 1042 l 171 -208 l -36 -208 l 183 1042 l 392 1042 z "},"а":{"ha":764,"x_min":0,"x_max":731,"o":"m 247 0 l 0 0 l 36 208 l 106 208 l 314 833 l 431 833 l 426 535 l 247 0 m 401 375 l 453 375 l 460 833 l 672 833 l 661 208 l 731 208 l 694 0 l 447 0 l 450 208 l 346 208 l 401 375 z "},"б":{"ha":694,"x_min":0,"x_max":771,"o":"m 342 208 l 453 208 l 478 347 l 367 347 l 403 556 l 583 556 l 697 417 l 649 139 l 486 0 l 306 0 l 342 208 m 0 0 l 36 208 l 106 208 l 179 625 l 110 625 l 146 833 l 424 833 l 278 0 l 0 0 m 451 833 l 771 833 l 735 625 l 415 625 l 451 833 z "},"в":{"ha":694,"x_min":0,"x_max":747,"o":"m 453 208 l 478 347 l 367 347 l 390 486 l 501 486 l 526 625 l 415 625 l 451 833 l 632 833 l 747 694 l 710 486 l 628 417 l 686 347 l 649 139 l 486 0 l 306 0 l 342 208 l 453 208 m 278 0 l 0 0 l 36 208 l 106 208 l 179 625 l 110 625 l 146 833 l 424 833 l 278 0 z "},"г":{"ha":694,"x_min":0,"x_max":771,"o":"m 314 208 l 383 208 l 347 0 l 0 0 l 36 208 l 106 208 l 179 625 l 110 625 l 146 833 l 424 833 l 314 208 m 451 833 l 771 833 l 717 521 l 508 521 l 526 625 l 415 625 l 451 833 z "},"д":{"ha":799,"x_min":-11,"x_max":875,"o":"m 597 833 l 875 833 l 839 625 l 769 625 l 696 208 l 765 208 l 717 -69 l 508 -69 l 521 0 l 451 0 l 597 833 m 208 0 l 196 -69 l -11 -69 l 36 208 l 106 208 l 314 833 l 569 833 l 533 625 l 457 625 l 317 208 l 460 208 l 424 0 l 208 0 z "},"е":{"ha":694,"x_min":0,"x_max":771,"o":"m 390 486 l 501 486 l 478 347 l 367 347 l 390 486 m 278 0 l 0 0 l 36 208 l 106 208 l 179 625 l 110 625 l 146 833 l 424 833 l 278 0 m 342 208 l 453 208 l 471 313 l 679 313 l 625 0 l 306 0 l 342 208 m 451 833 l 771 833 l 717 521 l 508 521 l 526 625 l 415 625 l 451 833 z "},"ж":{"ha":972,"x_min":0,"x_max":1049,"o":"m 208 0 l 0 0 l 36 208 l 119 208 l 272 417 l 193 625 l 110 625 l 146 833 l 354 833 l 431 633 l 354 200 l 208 0 m 493 833 l 701 833 l 556 0 l 347 0 l 493 833 m 840 833 l 1049 833 l 1013 625 l 929 625 l 775 417 l 856 208 l 939 208 l 903 0 l 694 0 l 618 200 l 694 633 l 840 833 z "},"з":{"ha":639,"x_min":24,"x_max":692,"o":"m 381 625 l 318 625 l 300 521 l 92 521 l 122 694 l 285 833 l 417 833 l 381 625 m 271 0 l 139 0 l 24 139 l 54 313 l 263 313 l 244 208 l 307 208 l 271 0 m 397 208 l 422 347 l 269 347 l 293 486 l 446 486 l 471 625 l 408 625 l 444 833 l 576 833 l 692 694 l 654 486 l 572 417 l 631 347 l 593 139 l 431 0 l 299 0 l 335 208 l 397 208 z "},"и":{"ha":764,"x_min":0,"x_max":840,"o":"m 840 833 l 804 625 l 665 625 l 236 0 l 0 0 l 36 208 l 175 208 l 604 833 l 840 833 m 163 236 l 110 236 l 179 625 l 110 625 l 146 833 l 424 833 l 372 540 l 163 236 m 729 597 l 661 208 l 731 208 l 694 0 l 417 0 l 468 293 l 676 597 l 729 597 z "},"й":{"ha":764,"x_min":0,"x_max":840,"o":"m 308 965 l 358 1103 l 532 1053 l 725 1103 l 725 965 l 503 889 l 308 965 m 840 833 l 804 625 l 665 625 l 236 0 l 0 0 l 36 208 l 175 208 l 604 833 l 840 833 m 163 236 l 110 236 l 179 625 l 110 625 l 146 833 l 424 833 l 372 540 l 163 236 m 729 597 l 661 208 l 731 208 l 694 0 l 417 0 l 468 293 l 676 597 l 729 597 z "},"к":{"ha":708,"x_min":0,"x_max":785,"o":"m 278 0 l 0 0 l 36 208 l 106 208 l 179 625 l 110 625 l 146 833 l 424 833 l 278 0 m 417 633 l 340 200 l 417 0 l 639 0 l 675 208 l 578 208 l 497 417 l 651 625 l 749 625 l 785 833 l 563 833 l 417 633 z "},"л":{"ha":799,"x_min":0,"x_max":875,"o":"m 533 625 l 457 625 l 247 0 l 0 0 l 36 208 l 106 208 l 314 833 l 569 833 l 533 625 m 597 833 l 875 833 l 839 625 l 769 625 l 696 208 l 765 208 l 729 0 l 382 0 l 418 208 l 488 208 l 597 833 z "},"м":{"ha":903,"x_min":0,"x_max":979,"o":"m 442 146 l 261 625 l 110 625 l 146 833 l 382 833 l 575 328 l 442 146 m 528 538 l 743 833 l 979 833 l 943 625 l 874 625 l 800 208 l 869 208 l 833 0 l 556 0 l 611 317 l 528 538 m 239 597 l 336 338 l 278 0 l 0 0 l 36 208 l 106 208 l 174 597 l 239 597 z "},"н":{"ha":764,"x_min":0,"x_max":840,"o":"m 397 521 l 508 521 l 563 833 l 840 833 l 804 625 l 735 625 l 661 208 l 731 208 l 694 0 l 417 0 l 471 313 l 360 313 l 397 521 m 278 0 l 0 0 l 36 208 l 106 208 l 179 625 l 110 625 l 146 833 l 424 833 l 278 0 z "},"о":{"ha":660,"x_min":24,"x_max":713,"o":"m 597 833 l 713 694 l 614 139 l 451 0 l 308 0 l 344 208 l 418 208 l 492 625 l 418 625 l 454 833 l 597 833 m 139 0 l 24 139 l 122 694 l 285 833 l 426 833 l 390 625 l 318 625 l 244 208 l 317 208 l 281 0 l 139 0 z "},"п":{"ha":764,"x_min":0,"x_max":840,"o":"m 278 0 l 0 0 l 36 208 l 106 208 l 179 625 l 110 625 l 146 833 l 424 833 l 278 0 m 451 833 l 840 833 l 804 625 l 735 625 l 661 208 l 731 208 l 694 0 l 417 0 l 526 625 l 415 625 l 451 833 z "},"р":{"ha":694,"x_min":0,"x_max":747,"o":"m 314 208 l 383 208 l 347 0 l 0 0 l 36 208 l 106 208 l 179 625 l 110 625 l 146 833 l 424 833 l 314 208 m 390 486 l 501 486 l 526 625 l 415 625 l 451 833 l 632 833 l 747 694 l 697 417 l 535 278 l 354 278 l 390 486 z "},"с":{"ha":660,"x_min":24,"x_max":736,"o":"m 418 625 l 454 833 l 736 833 l 682 521 l 474 521 l 492 625 l 418 625 m 344 208 l 308 0 l 590 0 l 644 313 l 436 313 l 418 208 l 344 208 m 281 0 l 317 208 l 244 208 l 318 625 l 390 625 l 426 833 l 285 833 l 122 694 l 24 139 l 139 0 l 281 0 z "},"т":{"ha":764,"x_min":92,"x_max":840,"o":"m 361 833 l 325 625 l 283 625 l 265 521 l 92 521 l 146 833 l 361 833 m 589 625 l 625 833 l 840 833 l 786 521 l 613 521 l 631 625 l 589 625 m 597 833 l 488 208 l 557 208 l 521 0 l 174 0 l 210 208 l 279 208 l 389 833 l 597 833 z "},"у":{"ha":736,"x_min":110,"x_max":813,"o":"m 515 446 l 474 208 l 543 208 l 507 0 l 160 0 l 196 208 l 265 208 l 297 386 l 207 625 l 110 625 l 146 833 l 368 833 l 515 446 m 547 446 l 679 625 l 776 625 l 813 833 l 590 833 l 467 663 l 547 446 z "},"х":{"ha":736,"x_min":0,"x_max":813,"o":"m 467 663 l 590 833 l 813 833 l 776 625 l 679 625 l 547 446 l 467 663 m 606 208 l 703 208 l 667 0 l 444 0 l 207 625 l 110 625 l 146 833 l 368 833 l 606 208 m 346 171 l 222 0 l 0 0 l 36 208 l 133 208 l 265 388 l 346 171 z "},"ц":{"ha":764,"x_min":0,"x_max":840,"o":"m 417 0 l 563 833 l 840 833 l 804 625 l 735 625 l 661 208 l 731 208 l 682 -69 l 474 -69 l 486 0 l 417 0 m 389 0 l 0 0 l 36 208 l 106 208 l 179 625 l 110 625 l 146 833 l 424 833 l 314 208 l 425 208 l 389 0 z "},"ч":{"ha":764,"x_min":110,"x_max":840,"o":"m 563 833 l 840 833 l 804 625 l 735 625 l 661 208 l 731 208 l 694 0 l 347 0 l 383 208 l 453 208 l 563 833 m 443 313 l 263 313 l 149 451 l 179 625 l 110 625 l 146 833 l 424 833 l 369 521 l 481 521 l 443 313 z "},"ш":{"ha":1111,"x_min":0,"x_max":1188,"o":"m 653 0 l 689 208 l 800 208 l 910 833 l 1188 833 l 1151 625 l 1082 625 l 1008 208 l 1078 208 l 1042 0 l 653 0 m 625 0 l 417 0 l 563 833 l 771 833 l 625 0 m 389 0 l 0 0 l 36 208 l 106 208 l 179 625 l 110 625 l 146 833 l 424 833 l 314 208 l 425 208 l 389 0 z "},"щ":{"ha":1111,"x_min":0,"x_max":1188,"o":"m 653 0 l 689 208 l 800 208 l 910 833 l 1188 833 l 1151 625 l 1082 625 l 1008 208 l 1078 208 l 1029 -69 l 821 -69 l 833 0 l 653 0 m 625 0 l 417 0 l 563 833 l 771 833 l 625 0 m 389 0 l 0 0 l 36 208 l 106 208 l 179 625 l 110 625 l 146 833 l 424 833 l 314 208 l 425 208 l 389 0 z "},"ъ":{"ha":833,"x_min":110,"x_max":836,"o":"m 139 0 l 175 208 l 244 208 l 354 833 l 632 833 l 596 625 l 526 625 l 417 0 l 139 0 m 592 208 l 617 347 l 506 347 l 542 556 l 722 556 l 836 417 l 788 139 l 625 0 l 444 0 l 481 208 l 592 208 m 110 625 l 146 833 l 326 833 l 290 625 l 110 625 z "},"ы":{"ha":1111,"x_min":0,"x_max":1188,"o":"m 0 0 l 36 208 l 106 208 l 179 625 l 110 625 l 146 833 l 493 833 l 457 625 l 388 625 l 278 0 l 0 0 m 453 208 l 478 347 l 367 347 l 403 556 l 583 556 l 697 417 l 649 139 l 486 0 l 306 0 l 342 208 l 453 208 m 1188 833 l 1151 625 l 1082 625 l 1008 208 l 1078 208 l 1042 0 l 694 0 l 731 208 l 800 208 l 874 625 l 804 625 l 840 833 l 1188 833 z "},"ь":{"ha":694,"x_min":0,"x_max":697,"o":"m 0 0 l 36 208 l 106 208 l 179 625 l 110 625 l 146 833 l 493 833 l 457 625 l 388 625 l 278 0 l 0 0 m 453 208 l 478 347 l 367 347 l 403 556 l 583 556 l 697 417 l 649 139 l 486 0 l 306 0 l 342 208 l 453 208 z "},"э":{"ha":639,"x_min":24,"x_max":692,"o":"m 381 625 l 318 625 l 300 521 l 92 521 l 122 694 l 285 833 l 417 833 l 381 625 m 271 0 l 139 0 l 24 139 l 54 313 l 263 313 l 244 208 l 307 208 l 271 0 m 397 208 l 422 347 l 269 347 l 293 486 l 446 486 l 471 625 l 408 625 l 444 833 l 576 833 l 692 694 l 593 139 l 431 0 l 299 0 l 335 208 l 397 208 z "},"я":{"ha":742,"x_min":0,"x_max":818,"o":"m 415 278 l 353 278 l 228 0 l 0 0 l 36 208 l 106 208 l 183 382 l 126 451 l 169 694 l 332 833 l 513 833 l 476 625 l 365 625 l 340 486 l 451 486 l 415 278 m 540 833 l 818 833 l 782 625 l 713 625 l 639 208 l 708 208 l 672 0 l 394 0 l 540 833 z "},"ё":{"ha":694,"x_min":0,"x_max":771,"o":"m 390 486 l 501 486 l 478 347 l 367 347 l 390 486 m 278 0 l 0 0 l 36 208 l 106 208 l 179 625 l 110 625 l 146 833 l 424 833 l 278 0 m 342 208 l 453 208 l 471 313 l 679 313 l 625 0 l 306 0 l 342 208 m 451 833 l 771 833 l 717 521 l 508 521 l 526 625 l 415 625 l 451 833 m 293 1065 l 467 1065 l 436 892 l 263 892 l 293 1065 m 536 1065 l 710 1065 l 679 892 l 506 892 l 536 1065 z "},"Ё":{"ha":694,"x_min":0,"x_max":771,"o":"m 390 486 l 501 486 l 478 347 l 367 347 l 390 486 m 278 0 l 0 0 l 36 208 l 106 208 l 179 625 l 110 625 l 146 833 l 424 833 l 278 0 m 342 208 l 453 208 l 471 313 l 679 313 l 625 0 l 306 0 l 342 208 m 451 833 l 771 833 l 717 521 l 508 521 l 526 625 l 415 625 l 451 833 m 293 1065 l 467 1065 l 436 892 l 263 892 l 293 1065 m 536 1065 l 710 1065 l 679 892 l 506 892 l 536 1065 z "},"љ":{"ha":1076,"x_min":0,"x_max":1079,"o":"m 533 625 l 457 625 l 247 0 l 0 0 l 36 208 l 106 208 l 314 833 l 569 833 l 533 625 m 724 208 l 835 208 l 860 347 l 749 347 l 785 556 l 965 556 l 1079 417 l 1031 139 l 868 0 l 688 0 l 724 208 m 660 0 l 451 0 l 597 833 l 875 833 l 839 625 l 769 625 l 660 0 z "},"њ":{"ha":1042,"x_min":0,"x_max":1044,"o":"m 278 0 l 0 0 l 36 208 l 106 208 l 179 625 l 110 625 l 146 833 l 424 833 l 278 0 m 417 0 l 471 313 l 360 313 l 397 521 l 508 521 l 563 833 l 840 833 l 804 625 l 735 625 l 625 0 l 417 0 m 800 208 l 825 347 l 714 347 l 750 556 l 931 556 l 1044 417 l 996 139 l 833 0 l 653 0 l 689 208 l 800 208 z "},"/":{"ha":556,"x_min":-36,"x_max":669,"o":"m 669 1042 l 171 -208 l -36 -208 l 461 1042 l 669 1042 z "},"\\":{"ha":556,"x_min":183,"x_max":449,"o":"m 392 1042 l 449 -208 l 240 -208 l 183 1042 l 392 1042 z "},"_":{"ha":625,"x_min":-26,"x_max":556,"o":"m 556 0 l 528 -153 l -26 -153 l 0 0 l 556 0 z "},"-":{"ha":486,"x_min":61,"x_max":501,"o":"m 61 347 l 85 486 l 501 486 l 478 347 l 61 347 z "},"(":{"ha":375,"x_min":-36,"x_max":489,"o":"m 489 1042 l 451 833 l 354 833 l 208 0 l 306 0 l 268 -208 l -36 -208 l 183 1042 l 489 1042 z "},")":{"ha":375,"x_min":-36,"x_max":489,"o":"m 489 1042 l 268 -208 l -36 -208 l 0 0 l 97 0 l 243 833 l 146 833 l 183 1042 l 489 1042 z "},"*":{"ha":578,"x_min":146,"x_max":585,"o":"m 263 624 l 164 706 l 247 797 l 146 832 l 213 964 l 313 929 l 333 1042 l 472 1042 l 451 929 l 565 964 l 585 832 l 472 797 l 522 706 l 396 624 l 344 715 l 263 624 z "},"#":{"ha":1056,"x_min":29,"x_max":1103,"o":"m 306 0 l 125 0 l 196 167 l 29 167 l 100 333 l 267 333 l 338 500 l 171 500 l 242 667 l 408 667 l 479 833 l 660 833 l 589 667 l 756 667 l 826 833 l 1007 833 l 936 667 l 1103 667 l 1032 500 l 865 500 l 794 333 l 961 333 l 890 167 l 724 167 l 653 0 l 472 0 l 543 167 l 376 167 l 306 0 m 447 333 l 614 333 l 685 500 l 518 500 l 447 333 z "},"!":{"ha":278,"x_min":0,"x_max":354,"o":"m 146 833 l 354 833 l 229 278 l 76 278 l 146 833 m 36 208 l 244 208 l 208 0 l 0 0 l 36 208 z "},"?":{"ha":639,"x_min":97,"x_max":692,"o":"m 417 833 l 381 625 l 318 625 l 306 556 l 97 556 l 146 833 l 417 833 m 408 625 l 444 833 l 576 833 l 692 694 l 660 514 l 447 333 l 435 264 l 226 264 l 247 382 l 460 563 l 471 625 l 408 625 m 181 0 l 389 0 l 425 208 l 217 208 l 181 0 z "},"¡":{"ha":278,"x_min":0,"x_max":354,"o":"m 125 556 l 278 556 l 208 0 l 0 0 l 125 556 m 146 833 l 354 833 l 318 625 l 110 625 l 146 833 z "},"¿":{"ha":639,"x_min":24,"x_max":618,"o":"m 299 0 l 335 208 l 397 208 l 410 278 l 618 278 l 569 0 l 299 0 m 307 208 l 271 0 l 139 0 l 24 139 l 56 319 l 268 500 l 281 569 l 489 569 l 468 451 l 256 271 l 244 208 l 307 208 m 499 625 l 290 625 l 326 833 l 535 833 l 499 625 z "},"%":{"ha":764,"x_min":110,"x_max":731,"o":"m 146 833 l 354 833 l 318 625 l 110 625 l 146 833 m 701 833 l 347 0 l 139 0 l 493 833 l 701 833 m 522 208 l 731 208 l 694 0 l 486 0 l 522 208 z "},"+":{"ha":486,"x_min":61,"x_max":501,"o":"m 224 486 l 249 625 l 388 625 l 363 486 l 501 486 l 478 347 l 339 347 l 314 208 l 175 208 l 200 347 l 61 347 l 85 486 l 224 486 z "},"@":{"ha":660,"x_min":21,"x_max":722,"o":"m 594 664 l 553 714 l 294 714 l 236 664 l 149 169 l 190 119 l 618 119 l 597 0 l 119 0 l 21 119 l 125 714 l 265 833 l 624 833 l 722 714 l 639 239 l 281 239 l 343 594 l 582 594 l 594 664 z "},"€":{"ha":729,"x_min":57,"x_max":806,"o":"m 378 0 l 414 208 l 488 208 l 500 278 l 708 278 l 660 0 l 378 0 m 350 0 l 208 0 l 93 139 l 126 324 l 57 324 l 68 393 l 138 393 l 146 440 l 76 440 l 89 510 l 158 510 l 192 694 l 354 833 l 496 833 l 460 625 l 388 625 l 367 510 l 540 510 l 528 440 l 354 440 l 346 393 l 519 393 l 508 324 l 335 324 l 314 208 l 386 208 l 350 0 m 524 833 l 806 833 l 757 556 l 549 556 l 561 625 l 488 625 l 524 833 z "},"&":{"ha":639,"x_min":0,"x_max":715,"o":"m 333 0 l 321 -69 l 224 -69 l 236 0 l 0 0 l 61 347 l 142 417 l 85 486 l 122 694 l 285 833 l 382 833 l 394 903 l 492 903 l 479 833 l 715 833 l 661 521 l 453 521 l 471 625 l 318 625 l 293 486 l 446 486 l 422 347 l 269 347 l 244 208 l 397 208 l 415 313 l 624 313 l 593 139 l 431 0 l 333 0 z "},"ß":{"ha":708,"x_min":0,"x_max":761,"o":"m 514 833 l 646 833 l 761 694 l 724 486 l 642 417 l 700 347 l 663 139 l 500 0 l 347 0 l 383 208 l 467 208 l 492 347 l 408 347 l 432 486 l 515 486 l 540 625 l 478 625 l 514 833 m 450 625 l 388 625 l 278 0 l 0 0 l 36 208 l 106 208 l 192 694 l 354 833 l 486 833 l 450 625 z "},"£":{"ha":694,"x_min":0,"x_max":679,"o":"m 278 0 l 0 0 l 36 208 l 106 208 l 136 382 l 67 382 l 79 451 l 149 451 l 192 694 l 354 833 l 563 833 l 526 625 l 388 625 l 357 451 l 531 451 l 518 382 l 344 382 l 278 0 m 342 208 l 453 208 l 471 313 l 679 313 l 625 0 l 306 0 l 342 208 z "},"b":{"ha":694,"x_min":0,"x_max":747,"o":"m 453 208 l 478 347 l 367 347 l 390 486 l 501 486 l 526 625 l 415 625 l 451 833 l 632 833 l 747 694 l 710 486 l 628 417 l 686 347 l 649 139 l 486 0 l 306 0 l 342 208 l 453 208 m 278 0 l 0 0 l 36 208 l 106 208 l 179 625 l 110 625 l 146 833 l 424 833 l 278 0 z "},"=":{"ha":486,"x_min":42,"x_max":519,"o":"m 519 590 l 496 451 l 79 451 l 103 590 l 519 590 m 483 382 l 458 243 l 42 243 l 67 382 l 483 382 z "},"¥":{"ha":736,"x_min":110,"x_max":813,"o":"m 511 456 l 649 456 l 638 386 l 506 386 l 496 332 l 628 332 l 615 263 l 483 263 l 474 208 l 543 208 l 507 0 l 160 0 l 196 208 l 265 208 l 275 263 l 143 263 l 156 332 l 288 332 l 297 386 l 165 386 l 176 456 l 269 456 l 207 625 l 110 625 l 146 833 l 368 833 l 511 456 m 533 483 l 575 483 l 679 625 l 776 625 l 813 833 l 590 833 l 467 663 l 533 483 z "},"Ľ":{"ha":694,"x_min":0,"x_max":783,"o":"m 575 903 l 783 903 l 747 694 l 653 556 l 528 556 l 594 694 l 539 694 l 575 903 m 306 0 l 342 208 l 453 208 l 471 313 l 679 313 l 625 0 l 306 0 m 278 0 l 0 0 l 36 208 l 106 208 l 179 625 l 110 625 l 146 833 l 493 833 l 457 625 l 388 625 l 278 0 z "},"Ѕ":{"ha":639,"x_min":0,"x_max":715,"o":"m 444 833 l 715 833 l 667 556 l 458 556 l 471 625 l 408 625 l 444 833 m 271 0 l 0 0 l 49 278 l 257 278 l 244 208 l 307 208 l 271 0 m 335 208 l 397 208 l 411 285 l 69 396 l 122 694 l 285 833 l 417 833 l 381 625 l 318 625 l 304 549 l 646 438 l 593 139 l 431 0 l 299 0 l 335 208 z "},"Ї":{"ha":417,"x_min":0,"x_max":572,"o":"m 493 833 l 457 625 l 388 625 l 314 208 l 383 208 l 347 0 l 0 0 l 36 208 l 106 208 l 179 625 l 110 625 l 146 833 l 493 833 m 156 1065 l 329 1065 l 299 892 l 125 892 l 156 1065 m 399 1065 l 572 1065 l 542 892 l 368 892 l 399 1065 z "},"Ј":{"ha":694,"x_min":24,"x_max":771,"o":"m 292 0 l 328 208 l 383 208 l 457 625 l 388 625 l 424 833 l 771 833 l 735 625 l 665 625 l 579 139 l 417 0 l 292 0 m 300 208 l 264 0 l 139 0 l 24 139 l 54 313 l 263 313 l 244 208 l 300 208 z "},"Ў":{"ha":736,"x_min":110,"x_max":813,"o":"m 292 951 l 342 1089 l 515 1039 l 708 1089 l 708 951 l 488 875 l 292 951 m 515 446 l 474 208 l 543 208 l 507 0 l 160 0 l 196 208 l 265 208 l 297 386 l 207 625 l 110 625 l 146 833 l 368 833 l 515 446 m 467 663 l 590 833 l 813 833 l 776 625 l 679 625 l 547 446 l 467 663 z "},"ѕ":{"ha":639,"x_min":0,"x_max":715,"o":"m 444 833 l 715 833 l 667 556 l 458 556 l 471 625 l 408 625 l 444 833 m 271 0 l 0 0 l 49 278 l 257 278 l 244 208 l 307 208 l 271 0 m 335 208 l 397 208 l 411 285 l 69 396 l 122 694 l 285 833 l 417 833 l 381 625 l 318 625 l 304 549 l 646 438 l 593 139 l 431 0 l 299 0 l 335 208 z "},"ї":{"ha":417,"x_min":0,"x_max":572,"o":"m 493 833 l 457 625 l 388 625 l 314 208 l 383 208 l 347 0 l 0 0 l 36 208 l 106 208 l 179 625 l 110 625 l 146 833 l 493 833 m 156 1065 l 329 1065 l 299 892 l 125 892 l 156 1065 m 399 1065 l 572 1065 l 542 892 l 368 892 l 399 1065 z "},"ј":{"ha":694,"x_min":24,"x_max":771,"o":"m 292 0 l 328 208 l 383 208 l 457 625 l 388 625 l 424 833 l 771 833 l 735 625 l 665 625 l 579 139 l 417 0 l 292 0 m 300 208 l 264 0 l 139 0 l 24 139 l 54 313 l 263 313 l 244 208 l 300 208 z "},"ў":{"ha":736,"x_min":110,"x_max":813,"o":"m 292 951 l 342 1089 l 515 1039 l 708 1089 l 708 951 l 488 875 l 292 951 m 515 446 l 474 208 l 543 208 l 507 0 l 160 0 l 196 208 l 265 208 l 297 386 l 207 625 l 110 625 l 146 833 l 368 833 l 515 446 m 467 663 l 590 833 l 813 833 l 776 625 l 679 625 l 547 446 l 467 663 z "},"џ":{"ha":764,"x_min":0,"x_max":840,"o":"m 361 0 l 397 208 l 453 208 l 563 833 l 840 833 l 804 625 l 735 625 l 661 208 l 731 208 l 694 0 l 361 0 m 446 -28 l 439 -69 l 231 -69 l 238 -28 l 446 -28 m 333 0 l 0 0 l 36 208 l 106 208 l 179 625 l 110 625 l 146 833 l 424 833 l 314 208 l 369 208 l 333 0 z "},"Є":{"ha":639,"x_min":24,"x_max":692,"o":"m 444 833 l 576 833 l 692 694 l 661 521 l 453 521 l 471 625 l 408 625 l 444 833 m 335 208 l 397 208 l 415 313 l 624 313 l 593 139 l 431 0 l 299 0 l 335 208 m 307 208 l 271 0 l 139 0 l 24 139 l 122 694 l 285 833 l 417 833 l 381 625 l 318 625 l 293 486 l 446 486 l 422 347 l 269 347 l 244 208 l 307 208 z "},"є":{"ha":639,"x_min":24,"x_max":692,"o":"m 444 833 l 576 833 l 692 694 l 661 521 l 453 521 l 471 625 l 408 625 l 444 833 m 335 208 l 397 208 l 415 313 l 624 313 l 593 139 l 431 0 l 299 0 l 335 208 m 307 208 l 271 0 l 139 0 l 24 139 l 122 694 l 285 833 l 417 833 l 381 625 l 318 625 l 293 486 l 446 486 l 422 347 l 269 347 l 244 208 l 307 208 z "},"Ѓ":{"ha":694,"x_min":0,"x_max":771,"o":"m 319 1026 l 672 1103 l 672 932 l 319 889 l 319 1026 m 314 208 l 383 208 l 347 0 l 0 0 l 36 208 l 106 208 l 179 625 l 110 625 l 146 833 l 424 833 l 314 208 m 451 833 l 771 833 l 717 521 l 508 521 l 526 625 l 415 625 l 451 833 z "},"ѓ":{"ha":694,"x_min":0,"x_max":771,"o":"m 319 1026 l 672 1103 l 672 932 l 319 889 l 319 1026 m 314 208 l 383 208 l 347 0 l 0 0 l 36 208 l 106 208 l 179 625 l 110 625 l 146 833 l 424 833 l 314 208 m 451 833 l 771 833 l 717 521 l 508 521 l 526 625 l 415 625 l 451 833 z "},"Ћ":{"ha":868,"x_min":97,"x_max":840,"o":"m 325 625 l 283 625 l 271 556 l 97 556 l 146 833 l 361 833 l 325 625 m 589 625 l 625 833 l 840 833 l 792 556 l 618 556 l 631 625 l 589 625 m 451 0 l 174 0 l 210 208 l 279 208 l 389 833 l 597 833 l 451 0 m 564 486 l 675 486 l 790 347 l 765 208 l 835 208 l 799 0 l 521 0 l 569 278 l 528 278 l 564 486 z "},"ћ":{"ha":868,"x_min":97,"x_max":840,"o":"m 325 625 l 283 625 l 271 556 l 97 556 l 146 833 l 361 833 l 325 625 m 589 625 l 625 833 l 840 833 l 792 556 l 618 556 l 631 625 l 589 625 m 451 0 l 174 0 l 210 208 l 279 208 l 389 833 l 597 833 l 451 0 m 564 486 l 675 486 l 790 347 l 765 208 l 835 208 l 799 0 l 521 0 l 569 278 l 528 278 l 564 486 z "},"Ђ":{"ha":833,"x_min":97,"x_max":840,"o":"m 840 833 l 792 556 l 618 556 l 631 625 l 589 625 l 625 833 l 840 833 m 451 0 l 174 0 l 210 208 l 279 208 l 389 833 l 597 833 l 451 0 m 564 486 l 710 486 l 825 347 l 775 69 l 613 -69 l 494 -69 l 531 139 l 579 139 l 604 278 l 528 278 l 564 486 m 325 625 l 283 625 l 271 556 l 97 556 l 146 833 l 361 833 l 325 625 z "},"ђ":{"ha":833,"x_min":97,"x_max":840,"o":"m 840 833 l 792 556 l 618 556 l 631 625 l 589 625 l 625 833 l 840 833 m 451 0 l 174 0 l 210 208 l 279 208 l 389 833 l 597 833 l 451 0 m 564 486 l 710 486 l 825 347 l 775 69 l 613 -69 l 494 -69 l 531 139 l 579 139 l 604 278 l 528 278 l 564 486 m 325 625 l 283 625 l 271 556 l 97 556 l 146 833 l 361 833 l 325 625 z "},"C":{"ha":660,"x_min":24,"x_max":736,"o":"m 418 625 l 454 833 l 736 833 l 682 521 l 474 521 l 492 625 l 418 625 m 344 208 l 308 0 l 590 0 l 644 313 l 436 313 l 418 208 l 344 208 m 281 0 l 317 208 l 244 208 l 318 625 l 390 625 l 426 833 l 285 833 l 122 694 l 24 139 l 139 0 l 281 0 z "},"O":{"ha":660,"x_min":24,"x_max":713,"o":"m 597 833 l 713 694 l 614 139 l 451 0 l 308 0 l 344 208 l 418 208 l 492 625 l 418 625 l 454 833 l 597 833 m 139 0 l 24 139 l 122 694 l 285 833 l 426 833 l 390 625 l 318 625 l 244 208 l 317 208 l 281 0 l 139 0 z "},"A":{"ha":764,"x_min":0,"x_max":731,"o":"m 247 0 l 0 0 l 36 208 l 106 208 l 314 833 l 431 833 l 426 535 l 247 0 m 401 375 l 453 375 l 460 833 l 672 833 l 661 208 l 731 208 l 694 0 l 447 0 l 450 208 l 346 208 l 401 375 z "},"Љ":{"ha":1076,"x_min":0,"x_max":1079,"o":"m 533 625 l 457 625 l 247 0 l 0 0 l 36 208 l 106 208 l 314 833 l 569 833 l 533 625 m 724 208 l 835 208 l 860 347 l 749 347 l 785 556 l 965 556 l 1079 417 l 1031 139 l 868 0 l 688 0 l 724 208 m 660 0 l 451 0 l 597 833 l 875 833 l 839 625 l 769 625 l 660 0 z "}}}
